<?xml version="1.0" encoding="UTF-8" standalone="no"?>
<svg
   xmlns:dc="http://purl.org/dc/elements/1.1/"
   xmlns:cc="http://creativecommons.org/ns#"
   xmlns:rdf="http://www.w3.org/1999/02/22-rdf-syntax-ns#"
   xmlns:svg="http://www.w3.org/2000/svg"
   xmlns="http://www.w3.org/2000/svg"
   xmlns:sodipodi="http://sodipodi.sourceforge.net/DTD/sodipodi-0.dtd"
   xmlns:inkscape="http://www.inkscape.org/namespaces/inkscape"
   viewBox="0 0 280 80"
   version="1.1"
   id="svg5707"
   sodipodi:docname="AlexaBearDiagram.svg"
   inkscape:export-filename="/home/kyle/library/bear-meets-alexa/documentation/AlexaBearDiagram.png"
   inkscape:export-xdpi="393.35001"
   inkscape:export-ydpi="393.35001"
   inkscape:version="0.92.2 (unknown)"
   width="280"
   height="80">
  <metadata
     id="metadata5711">
    <rdf:RDF>
      <cc:Work
         rdf:about="">
        <dc:format>image/svg+xml</dc:format>
        <dc:type
           rdf:resource="http://purl.org/dc/dcmitype/StillImage" />
        <dc:title></dc:title>
      </cc:Work>
    </rdf:RDF>
  </metadata>
  <sodipodi:namedview
     pagecolor="#ffffff"
     bordercolor="#666666"
     borderopacity="1"
     objecttolerance="10"
     gridtolerance="10"
     guidetolerance="10"
     inkscape:pageopacity="1"
     inkscape:pageshadow="2"
     inkscape:window-width="1863"
     inkscape:window-height="1059"
     id="namedview5709"
     showgrid="false"
     inkscape:zoom="1.0858164"
     inkscape:cx="122.028"
     inkscape:cy="30.942499"
     inkscape:window-x="57"
     inkscape:window-y="21"
     inkscape:window-maximized="1"
     inkscape:current-layer="svg5707" />
  <defs
     id="defs5645">
    <marker
       orient="auto"
       id="c"
       overflow="visible"
       style="overflow:visible">
      <path
         d="m -5.231,-2.42 6.555,2.41 -6.554,2.411 c 1.047,-1.423 1.041,-3.37 0,-4.821 z"
         id="path5621"
         inkscape:connector-curvature="0"
         style="fill-rule:evenodd;stroke:#000000;stroke-width:0.375;stroke-linejoin:round" />
    </marker>
    <marker
       orient="auto"
       id="a"
       overflow="visible"
       style="overflow:visible">
      <path
         d="m -5.231,-2.42 6.555,2.41 -6.554,2.411 c 1.047,-1.423 1.041,-3.37 0,-4.821 z"
         id="path5624"
         inkscape:connector-curvature="0"
         style="fill-rule:evenodd;stroke:#000000;stroke-width:0.375;stroke-linejoin:round" />
    </marker>
    <marker
       orient="auto"
       id="b"
       overflow="visible"
       style="overflow:visible">
      <path
         d="m -5.231,-2.42 6.555,2.41 -6.554,2.411 c 1.047,-1.423 1.041,-3.37 0,-4.821 z"
         id="path5627"
         inkscape:connector-curvature="0"
         style="fill-rule:evenodd;stroke:#000000;stroke-width:0.375;stroke-linejoin:round" />
    </marker>
    <marker
       orient="auto"
       id="d"
       overflow="visible"
       style="overflow:visible">
      <path
         d="m -5.231,-2.42 6.555,2.41 -6.554,2.411 c 1.047,-1.423 1.041,-3.37 0,-4.821 z"
         id="path5630"
         inkscape:connector-curvature="0"
         style="fill-rule:evenodd;stroke:#000000;stroke-width:0.375;stroke-linejoin:round" />
    </marker>
    <marker
       orient="auto"
       id="e"
       overflow="visible"
       style="overflow:visible">
      <path
         d="m -5.231,-2.42 6.555,2.41 -6.554,2.411 c 1.047,-1.423 1.041,-3.37 0,-4.821 z"
         id="path5633"
         inkscape:connector-curvature="0"
         style="fill-rule:evenodd;stroke:#000000;stroke-width:0.375;stroke-linejoin:round" />
    </marker>
    <marker
       orient="auto"
       id="f"
       overflow="visible"
       style="overflow:visible">
      <path
         d="m -5.231,-2.42 6.555,2.41 -6.554,2.411 c 1.047,-1.423 1.041,-3.37 0,-4.821 z"
         id="path5636"
         inkscape:connector-curvature="0"
         style="fill-rule:evenodd;stroke:#000000;stroke-width:0.375;stroke-linejoin:round" />
    </marker>
    <clipPath
       id="g">
      <path
         d="M 0,512 H 512 V 0 H 0 Z"
         id="path5639"
         inkscape:connector-curvature="0" />
    </clipPath>
    <clipPath
       id="h">
      <path
         d="M 0,180 H 108 V 0 H 0 Z"
         id="path5642"
         inkscape:connector-curvature="0" />
    </clipPath>
  </defs>
  <g
     id="g6361"
     transform="translate(17.972269,-9.0564004)">
    <g
       id="g5655"
       transform="matrix(0.52885,0,0,0.52885,-16.406,16.117002)">
      <path
         inkscape:connector-curvature="0"
         id="path5647"
         d="M 65.986,8.699 C 65.699,5.282 55.855,4.362 50,4.362 c -5.855,0 -15.698,0.92 -15.986,4.337 H 34 v 80.948 c 0,3.933 8.049,5.99 16,5.99 7.951,0 16,-2.058 16,-5.99 V 8.699 Z M 64,11.263 c -1.549,1.11 -6.671,2.324 -14,2.324 -7.329,0 -12.451,-1.214 -14,-2.324 v -0.601 c 2.627,1.435 8.333,2.18 14,2.18 5.667,0 11.374,-0.745 14,-2.18 z m -28,1.144 c 2.627,1.435 8.333,2.18 14,2.18 5.667,0 11.374,-0.745 14,-2.18 v 3.278 c -1.549,1.11 -6.671,2.324 -14,2.324 -7.329,0 -12.451,-1.214 -14,-2.324 z M 50,6.362 c 8.541,0 13.659,1.649 14,2.489 v 0.666 c -1.549,1.11 -6.671,2.324 -14,2.324 -7.329,0 -12.451,-1.214 -14,-2.324 V 8.886 C 36.378,8.001 41.487,6.362 50,6.362 Z m 0,87.276 c -8.546,0 -14,-2.363 -14,-3.99 v -4.852 a 0.5,0.5 0 0 0 0.259,-0.929 L 36.167,83.81 A 0.476,0.476 0 0 0 36,83.745 v -0.729 a 0.5,0.5 0 0 0 0.258,-0.929 L 36.166,82.03 A 0.479,0.479 0 0 0 36,81.965 v -0.728 a 0.5,0.5 0 0 0 0.259,-0.929 L 36.167,80.251 A 0.531,0.531 0 0 0 36,80.188 V 79.46 a 0.5,0.5 0 0 0 0.259,-0.929 L 36.167,78.474 A 0.476,0.476 0 0 0 36,78.409 V 77.68 a 0.5,0.5 0 0 0 0.258,-0.929 L 36.166,76.694 A 0.479,0.479 0 0 0 36,76.629 v -0.727 a 0.5,0.5 0 0 0 0.259,-0.929 L 36.167,74.916 A 0.476,0.476 0 0 0 36,74.851 v -0.729 a 0.5,0.5 0 0 0 0.259,-0.929 L 36.167,73.136 A 0.476,0.476 0 0 0 36,73.071 v -0.729 a 0.5,0.5 0 0 0 0.258,-0.929 L 36.166,71.356 A 0.479,0.479 0 0 0 36,71.291 v -0.728 a 0.5,0.5 0 0 0 0.259,-0.929 L 36.167,69.577 A 0.476,0.476 0 0 0 36,69.512 v -0.729 a 0.5,0.5 0 0 0 0.258,-0.929 L 36.166,67.8 A 0.479,0.479 0 0 0 36,67.735 v -0.729 a 0.5,0.5 0 0 0 0.258,-0.929 L 36.166,66.02 A 0.479,0.479 0 0 0 36,65.955 v -0.728 a 0.5,0.5 0 0 0 0.258,-0.929 L 36.166,64.241 A 0.479,0.479 0 0 0 36,64.176 v -0.729 a 0.5,0.5 0 0 0 0.258,-0.929 L 36.166,62.461 A 0.479,0.479 0 0 0 36,62.396 V 61.669 A 0.5,0.5 0 0 0 36.259,60.74 L 36.167,60.683 A 0.476,0.476 0 0 0 36,60.618 V 59.889 A 0.5,0.5 0 0 0 36.258,58.96 L 36.166,58.903 A 0.479,0.479 0 0 0 36,58.838 v -0.727 a 0.5,0.5 0 0 0 0.259,-0.929 L 36.167,57.125 A 0.476,0.476 0 0 0 36,57.06 v -0.728 a 0.5,0.5 0 0 0 0.259,-0.929 L 36.167,55.346 A 0.476,0.476 0 0 0 36,55.281 v -0.729 a 0.5,0.5 0 0 0 0.258,-0.929 L 36.166,53.566 A 0.479,0.479 0 0 0 36,53.501 v -0.728 a 0.5,0.5 0 0 0 0.259,-0.929 L 36.167,51.787 A 0.476,0.476 0 0 0 36,51.722 v -0.728 a 0.5,0.5 0 0 0 0.259,-0.929 L 36.167,50.008 A 0.476,0.476 0 0 0 36,49.943 v -0.729 a 0.5,0.5 0 0 0 0.258,-0.929 L 36.166,48.228 A 0.479,0.479 0 0 0 36,48.163 V 47.44 a 0.5,0.5 0 0 0 0.259,-0.929 L 36.167,46.454 A 0.476,0.476 0 0 0 36,46.389 v -29.56 c 2.627,1.435 8.333,2.18 14,2.18 5.667,0 11.374,-0.745 14,-2.18 V 46.418 A 0.556,0.556 0 0 0 63.765,46.497 0.495,0.495 0 1 0 64,47.423 v 0.774 A 0.556,0.556 0 0 0 63.765,48.276 0.495,0.495 0 1 0 64,49.202 v 0.774 A 0.556,0.556 0 0 0 63.765,50.055 0.495,0.495 0 1 0 64,50.981 v 0.774 A 0.556,0.556 0 0 0 63.765,51.834 0.495,0.495 0 1 0 64,52.76 v 0.774 A 0.556,0.556 0 0 0 63.765,53.613 0.495,0.495 0 1 0 64,54.539 v 0.774 A 0.556,0.556 0 0 0 63.765,55.392 0.495,0.495 0 1 0 64,56.318 v 0.775 A 0.556,0.556 0 0 0 63.765,57.172 0.495,0.495 0 1 0 64,58.098 v 0.774 A 0.556,0.556 0 0 0 63.765,58.951 0.495,0.495 0 1 0 64,59.877 v 0.774 A 0.556,0.556 0 0 0 63.765,60.73 0.495,0.495 0 1 0 64,61.656 V 62.43 A 0.556,0.556 0 0 0 63.765,62.509 0.495,0.495 0 1 0 64,63.435 v 0.774 A 0.556,0.556 0 0 0 63.765,64.288 0.495,0.495 0 1 0 64,65.214 v 0.773 A 0.556,0.556 0 0 0 63.765,66.066 0.495,0.495 0 1 0 64,66.992 v 0.775 A 0.556,0.556 0 0 0 63.765,67.846 0.495,0.495 0 1 0 64,68.772 v 0.773 A 0.556,0.556 0 0 0 63.765,69.624 0.495,0.495 0 1 0 64,70.55 v 0.774 A 0.556,0.556 0 0 0 63.765,71.403 0.495,0.495 0 1 0 64,72.329 V 73.1 A 0.556,0.556 0 0 0 63.765,73.179 0.495,0.495 0 1 0 64,74.105 V 74.88 A 0.556,0.556 0 0 0 63.765,74.959 0.495,0.495 0 1 0 64,75.885 v 0.774 A 0.556,0.556 0 0 0 63.765,76.738 0.495,0.495 0 1 0 64,77.664 v 0.774 A 0.556,0.556 0 0 0 63.765,78.517 0.495,0.495 0 1 0 64,79.443 v 0.774 A 0.556,0.556 0 0 0 63.765,80.296 0.495,0.495 0 1 0 64,81.222 v 0.774 a 0.556,0.556 0 0 0 -0.235,0.079 0.5,0.5 0 0 0 -0.177,0.685 c 0.09,0.151 0.248,0.234 0.412,0.24 v 0.773 A 0.556,0.556 0 0 0 63.765,83.852 0.495,0.495 0 1 0 64,84.778 v 4.869 c 0,1.627 -5.454,3.991 -14,3.991 z" />
      <path
         inkscape:connector-curvature="0"
         id="path5649"
         d="M 50.073,48.674 H 49.95 c -0.276,0 -0.475,0.224 -0.475,0.5 0,0.276 0.248,0.5 0.524,0.5 h 0.074 a 0.5,0.5 0 0 0 0,-1 z m -1.584,-0.018 -0.123,-0.003 a 0.504,0.504 0 0 0 -0.512,0.488 0.501,0.501 0 0 0 0.488,0.512 l 0.123,0.003 h 0.012 a 0.500036,0.500036 0 0 0 0.012,-1 z m 3.168,-0.004 -0.123,0.003 a 0.501,0.501 0 0 0 0.012,1 h 0.013 l 0.122,-0.003 a 0.5,0.5 0 0 0 0.488,-0.512 0.512,0.512 0 0 0 -0.512,-0.488 z m -4.751,-0.053 -0.123,-0.006 a 0.516,0.516 0 0 0 -0.523,0.476 0.5,0.5 0 0 0 0.476,0.523 l 0.123,0.006 h 0.024 a 0.5,0.5 0 0 0 0.023,-0.999 z m 6.334,-0.007 -0.129,0.007 a 0.5,0.5 0 0 0 0.03,0.999 l 0.031,-10e-4 0.116,-0.006 A 0.50007624,0.50007624 0 1 0 53.24,48.592 Z M 45.325,48.5 45.203,48.491 c -0.271,-0.016 -0.485,0.189 -0.505,0.463 -0.021,0.275 0.214,0.517 0.489,0.538 l 0.067,0.005 0.036,10e-4 A 0.5,0.5 0 0 0 45.325,48.5 Z m 9.489,-0.011 -0.116,0.009 a 0.5,0.5 0 0 0 0.036,0.999 l 0.037,-10e-4 0.128,-0.01 A 0.5003084,0.5003084 0 1 0 54.814,48.489 Z M 43.752,48.355 43.63,48.342 a 0.5,0.5 0 1 0 -0.108,0.994 l 0.123,0.013 a 0.5,0.5 0 0 0 0.107,-0.994 z m 12.64,-0.016 -0.127,0.014 a 0.501,0.501 0 0 0 0.118,0.994 L 56.5,49.334 a 0.50042207,0.50042207 0 0 0 -0.108,-0.995 z m -14.205,-0.18 -0.122,-0.018 a 0.49,0.49 0 0 0 -0.566,0.423 0.5,0.5 0 0 0 0.423,0.566 l 0.122,0.018 a 0.49964237,0.49964237 0 0 0 0.143,-0.989 z m 15.77,-0.021 -0.127,0.019 a 0.50004225,0.50004225 0 0 0 0.155,0.988 l 0.116,-0.018 a 0.5,0.5 0 0 0 0.423,-0.566 0.493,0.493 0 0 0 -0.567,-0.423 z m -17.341,-0.24 -0.106,-0.02 c -0.273,-0.049 -0.484,0.139 -0.534,0.411 -0.05,0.272 0.178,0.542 0.45,0.591 l 0.02,0.003 a 0.492,0.492 0 0 0 0.575,-0.398 0.507,0.507 0 0 0 -0.405,-0.587 z m 18.89,-0.023 -0.12,0.023 a 0.49952027,0.49952027 0 1 0 0.189,0.981 l 0.122,-0.023 A 0.5,0.5 0 1 0 59.506,47.875 Z M 39.105,47.568 38.983,47.537 c -0.266,-0.069 -0.494,0.106 -0.562,0.373 -0.067,0.267 0.138,0.55 0.404,0.619 l 0.031,0.008 a 0.50024044,0.50024044 0 0 0 0.249,-0.969 z m 21.929,-0.036 -0.118,0.03 a 0.49975619,0.49975619 0 1 0 0.249,0.968 l 0.121,-0.031 a 0.499,0.499 0 0 0 0.358,-0.609 0.497,0.497 0 0 0 -0.61,-0.358 z M 37.617,47.125 37.513,47.088 a 0.5,0.5 0 1 0 -0.352,0.936 l 0.126,0.046 a 0.502,0.502 0 0 0 0.637,-0.307 0.5,0.5 0 0 0 -0.307,-0.638 z m 24.951,0.964 c 0.055,0 0.11,-0.009 0.165,-0.028 l 0.125,-0.045 a 0.4999425,0.4999425 0 1 0 -0.349,-0.937 l -0.106,0.039 a 0.5,0.5 0 0 0 0.165,0.971 z M 50,51.453 h 0.073 a 0.5,0.5 0 0 0 0,-1 H 49.95 c -0.276,0 -0.475,0.224 -0.475,0.5 0,0.276 0.248,0.5 0.525,0.5 z m -1.658,-0.021 0.123,0.003 h 0.012 a 0.500036,0.500036 0 0 0 0.012,-1 l -0.123,-0.003 c -0.283,-0.02 -0.505,0.212 -0.512,0.488 a 0.5,0.5 0 0 0 0.488,0.512 z m 3.204,0.002 h 0.012 l 0.122,-0.003 a 0.5,0.5 0 0 0 0.488,-0.512 c -0.007,-0.276 -0.241,-0.511 -0.512,-0.488 l -0.123,0.003 a 0.501,0.501 0 0 0 0.013,1 z m -4.811,-0.063 0.123,0.006 h 0.024 a 0.5,0.5 0 0 0 0.023,-0.999 l -0.123,-0.006 a 0.509,0.509 0 0 0 -0.523,0.476 c -0.013,0.275 0.2,0.509 0.476,0.523 z m 6.405,0.005 0.031,-10e-4 0.116,-0.006 a 0.5,0.5 0 0 0 0.476,-0.523 C 53.75,50.571 53.511,50.342 53.24,50.37 l -0.129,0.007 a 0.5,0.5 0 0 0 0.029,0.999 z m -7.954,-0.105 0.067,0.005 0.036,10e-4 a 0.5,0.5 0 0 0 0.035,-0.998 L 45.202,50.27 c -0.271,-0.016 -0.485,0.189 -0.505,0.463 -0.021,0.274 0.214,0.516 0.489,0.538 z m 9.628,-1.003 -0.116,0.009 a 0.5,0.5 0 0 0 0.036,0.999 l 0.037,-0.001 0.128,-0.01 a 0.5003084,0.5003084 0 1 0 -0.085,-0.997 z m -11.291,0.846 0.123,0.013 a 0.5,0.5 0 0 0 0.107,-0.994 L 43.63,50.12 a 0.5,0.5 0 0 0 -0.107,0.994 z m 12.799,0.014 0.06,-0.003 0.117,-0.013 a 0.5,0.5 0 1 0 -0.108,-0.994 l -0.127,0.014 a 0.5,0.5 0 1 0 0.058,0.996 z m -14.4,-0.219 0.122,0.018 a 0.49964237,0.49964237 0 0 0 0.143,-0.989 L 42.065,49.92 a 0.49,0.49 0 0 0 -0.566,0.423 0.5,0.5 0 0 0 0.423,0.566 z m 15.984,0.02 a 0.522,0.522 0 0 0 0.078,-0.006 L 58.1,50.905 a 0.5,0.5 0 0 0 0.423,-0.566 0.49,0.49 0 0 0 -0.566,-0.423 l -0.127,0.019 a 0.5,0.5 0 0 0 0.076,0.994 z m -17.48,-0.27 0.02,0.003 a 0.492,0.492 0 0 0 0.575,-0.398 0.508,0.508 0 0 0 -0.406,-0.587 l -0.106,-0.02 c -0.272,-0.051 -0.484,0.139 -0.534,0.411 -0.049,0.271 0.179,0.541 0.451,0.591 z m 19.08,-1.006 -0.12,0.023 a 0.49952027,0.49952027 0 1 0 0.189,0.981 l 0.122,-0.023 a 0.5,0.5 0 1 0 -0.191,-0.981 z m -20.681,0.654 0.031,0.008 a 0.5,0.5 0 0 0 0.249,-0.968 l -0.122,-0.031 c -0.265,-0.067 -0.494,0.106 -0.562,0.373 -0.067,0.267 0.138,0.549 0.404,0.618 z m 22.209,-0.996 -0.118,0.03 a 0.49975619,0.49975619 0 1 0 0.249,0.968 l 0.121,-0.031 a 0.49964813,0.49964813 0 1 0 -0.252,-0.967 z m -23.874,0.491 0.126,0.046 a 0.502,0.502 0 0 0 0.637,-0.307 0.5,0.5 0 0 0 -0.307,-0.637 l -0.104,-0.037 a 0.5,0.5 0 1 0 -0.352,0.935 z m 25.35,-0.945 -0.106,0.039 a 0.500009,0.500009 0 1 0 0.33,0.944 l 0.125,-0.045 A 0.502,0.502 0 0 0 62.51,48.857 Z M 50.073,52.231 H 49.95 c -0.276,0 -0.475,0.224 -0.475,0.5 0,0.276 0.248,0.5 0.524,0.5 h 0.074 a 0.5,0.5 0 0 0 0,-1 z m -1.584,-0.017 -0.123,-0.003 a 0.501,0.501 0 0 0 -0.024,1 l 0.123,0.003 h 0.012 a 0.500036,0.500036 0 0 0 0.012,-1 z m 3.168,-0.004 -0.123,0.003 a 0.501,0.501 0 0 0 0.012,1 h 0.013 l 0.122,-0.003 a 0.50014398,0.50014398 0 0 0 -0.024,-1 z M 46.906,52.156 46.783,52.15 a 0.514,0.514 0 0 0 -0.523,0.476 0.5,0.5 0 0 0 0.476,0.523 l 0.123,0.006 h 0.024 a 0.5,0.5 0 0 0 0.023,-0.999 z m 6.334,-0.007 -0.129,0.007 a 0.5,0.5 0 0 0 0.03,0.999 l 0.031,-10e-4 0.116,-0.006 A 0.50007624,0.50007624 0 1 0 53.24,52.149 Z m -7.915,-0.092 -0.122,-0.009 c -0.271,-0.016 -0.485,0.189 -0.505,0.463 -0.021,0.275 0.214,0.517 0.489,0.538 l 0.067,0.005 0.036,10e-4 a 0.5,0.5 0 0 0 0.035,-0.998 z m 9.489,-0.01 -0.116,0.009 a 0.5,0.5 0 0 0 0.036,0.999 l 0.037,-10e-4 0.128,-0.01 A 0.5003084,0.5003084 0 1 0 54.814,52.047 Z M 43.752,51.913 43.63,51.9 a 0.49992499,0.49992499 0 1 0 -0.108,0.994 l 0.123,0.013 a 0.5,0.5 0 0 0 0.107,-0.994 z m 12.64,-0.017 -0.127,0.014 a 0.501,0.501 0 0 0 0.118,0.994 L 56.5,52.891 a 0.50042207,0.50042207 0 1 0 -0.108,-0.995 z m -14.205,-0.18 -0.122,-0.018 a 0.489,0.489 0 0 0 -0.566,0.423 0.5,0.5 0 0 0 0.423,0.566 l 0.122,0.018 a 0.49964237,0.49964237 0 0 0 0.143,-0.989 z m 15.77,-0.021 -0.127,0.019 a 0.50004225,0.50004225 0 0 0 0.155,0.988 l 0.116,-0.018 a 0.5,0.5 0 0 0 0.423,-0.566 0.493,0.493 0 0 0 -0.567,-0.423 z M 40.616,51.456 40.51,51.436 c -0.273,-0.047 -0.484,0.139 -0.534,0.411 -0.05,0.272 0.178,0.542 0.45,0.591 l 0.02,0.003 a 0.492,0.492 0 0 0 0.575,-0.398 0.507,0.507 0 0 0 -0.405,-0.587 z m 18.89,-0.024 -0.12,0.023 a 0.49952027,0.49952027 0 1 0 0.189,0.981 l 0.122,-0.023 A 0.5,0.5 0 1 0 59.506,51.432 Z M 39.105,51.125 38.983,51.094 c -0.266,-0.069 -0.494,0.105 -0.562,0.373 -0.067,0.267 0.138,0.55 0.404,0.619 l 0.031,0.008 a 0.50024044,0.50024044 0 0 0 0.249,-0.969 z m 21.929,-0.036 -0.118,0.03 a 0.49975619,0.49975619 0 1 0 0.249,0.968 l 0.121,-0.031 A 0.49964813,0.49964813 0 1 0 61.034,51.089 Z M 37.617,50.682 37.513,50.645 a 0.5,0.5 0 1 0 -0.352,0.936 l 0.126,0.046 a 0.502,0.502 0 0 0 0.637,-0.307 0.5,0.5 0 0 0 -0.307,-0.638 z m 24.951,0.965 c 0.055,0 0.11,-0.009 0.165,-0.028 l 0.125,-0.045 a 0.4999425,0.4999425 0 1 0 -0.349,-0.937 l -0.106,0.039 a 0.5,0.5 0 0 0 0.165,0.971 z M 50.073,54.01 H 49.95 c -0.276,0 -0.475,0.224 -0.475,0.5 0,0.276 0.248,0.5 0.524,0.5 h 0.074 a 0.5,0.5 0 0 0 0,-1 z M 48.489,53.993 48.366,53.99 a 0.501,0.501 0 0 0 -0.024,1 l 0.123,0.003 h 0.012 a 0.500036,0.500036 0 0 0 0.012,-1 z m 3.168,-0.004 -0.123,0.003 a 0.501,0.501 0 0 0 0.012,1 h 0.012 l 0.122,-0.003 a 0.50013223,0.50013223 0 0 0 -0.023,-1 z m -4.751,-0.054 -0.123,-0.006 a 0.52,0.52 0 0 0 -0.523,0.476 0.5,0.5 0 0 0 0.476,0.523 l 0.123,0.006 h 0.024 a 0.5,0.5 0 0 0 0.023,-0.999 z m 6.334,-0.007 -0.129,0.007 a 0.5,0.5 0 0 0 0.03,0.999 l 0.031,-10e-4 0.116,-0.006 A 0.50007624,0.50007624 0 1 0 53.24,53.928 Z m -7.915,-0.092 -0.122,-0.009 a 0.48,0.48 0 0 0 -0.505,0.463 c -0.021,0.275 0.214,0.517 0.489,0.538 l 0.067,0.005 0.036,0.001 a 0.5,0.5 0 0 0 0.035,-0.998 z m 9.489,-0.01 -0.116,0.009 a 0.5,0.5 0 0 0 0.036,0.999 l 0.037,-0.001 0.128,-0.01 A 0.5003084,0.5003084 0 1 0 54.814,53.826 Z M 43.752,53.691 43.63,53.678 a 0.5,0.5 0 0 0 -0.108,0.994 l 0.123,0.013 a 0.5,0.5 0 0 0 0.107,-0.994 z m 12.64,-0.016 -0.127,0.014 a 0.501,0.501 0 0 0 0.118,0.994 L 56.5,54.67 a 0.50042207,0.50042207 0 0 0 -0.108,-0.995 z m -14.205,-0.18 -0.122,-0.018 a 0.49,0.49 0 0 0 -0.566,0.423 0.5,0.5 0 0 0 0.423,0.566 l 0.122,0.018 a 0.49964237,0.49964237 0 0 0 0.143,-0.989 z m 15.77,-0.021 -0.127,0.019 a 0.50004225,0.50004225 0 0 0 0.155,0.988 l 0.116,-0.018 a 0.5,0.5 0 1 0 -0.144,-0.989 z m -17.341,-0.24 -0.106,-0.02 c -0.273,-0.049 -0.484,0.139 -0.534,0.411 -0.05,0.272 0.178,0.542 0.45,0.591 l 0.02,0.003 a 0.492,0.492 0 0 0 0.575,-0.398 0.508,0.508 0 0 0 -0.405,-0.587 z m 18.89,-0.023 -0.12,0.023 a 0.49952027,0.49952027 0 1 0 0.189,0.981 l 0.122,-0.023 A 0.5,0.5 0 1 0 59.506,53.211 Z M 39.105,52.904 38.983,52.873 c -0.266,-0.067 -0.494,0.106 -0.562,0.373 -0.067,0.267 0.138,0.55 0.404,0.619 l 0.031,0.008 a 0.50024044,0.50024044 0 0 0 0.249,-0.969 z m 21.929,-0.036 -0.118,0.03 a 0.49975619,0.49975619 0 1 0 0.249,0.968 l 0.121,-0.031 A 0.49964813,0.49964813 0 1 0 61.034,52.868 Z M 37.617,52.461 37.513,52.424 a 0.5,0.5 0 1 0 -0.352,0.936 l 0.126,0.046 a 0.502,0.502 0 0 0 0.637,-0.307 0.5,0.5 0 0 0 -0.307,-0.638 z m 24.951,0.965 c 0.055,0 0.11,-0.009 0.165,-0.028 l 0.125,-0.045 a 0.4999425,0.4999425 0 1 0 -0.349,-0.937 l -0.106,0.039 a 0.5,0.5 0 0 0 0.165,0.971 z M 50,56.79 h 0.073 a 0.5,0.5 0 0 0 0,-1 H 49.95 c -0.276,0 -0.475,0.224 -0.475,0.5 0,0.276 0.248,0.5 0.525,0.5 z m -1.658,-0.021 0.123,0.003 h 0.012 a 0.500036,0.500036 0 0 0 0.012,-1 l -0.123,-0.003 a 0.50014398,0.50014398 0 1 0 -0.024,1 z m 3.204,0.002 h 0.012 l 0.122,-0.003 a 0.5,0.5 0 0 0 0.488,-0.512 0.509,0.509 0 0 0 -0.512,-0.488 l -0.123,0.003 a 0.501,0.501 0 0 0 0.013,1 z m -4.811,-0.063 0.123,0.006 h 0.024 a 0.5,0.5 0 0 0 0.023,-0.999 l -0.123,-0.006 a 0.511,0.511 0 0 0 -0.523,0.476 c -0.013,0.275 0.2,0.509 0.476,0.523 z m 6.405,0.005 0.031,-10e-4 0.116,-0.006 a 0.5,0.5 0 0 0 0.476,-0.523 C 53.75,55.908 53.511,55.682 53.24,55.707 l -0.129,0.007 a 0.5,0.5 0 0 0 0.029,0.999 z m -7.954,-0.106 0.067,0.005 0.036,10e-4 a 0.5,0.5 0 0 0 0.035,-0.998 l -0.122,-0.009 a 0.48,0.48 0 0 0 -0.505,0.463 c -0.021,0.275 0.214,0.517 0.489,0.538 z m 9.628,-1.002 -0.116,0.009 a 0.5,0.5 0 0 0 0.036,0.999 l 0.037,-10e-4 0.128,-0.01 a 0.5003084,0.5003084 0 1 0 -0.085,-0.997 z m -11.291,0.846 0.123,0.013 a 0.5,0.5 0 0 0 0.107,-0.994 l -0.122,-0.013 a 0.5,0.5 0 1 0 -0.108,0.994 z m 12.799,0.014 0.06,-0.003 0.117,-0.013 a 0.5,0.5 0 1 0 -0.108,-0.994 l -0.127,0.014 a 0.5,0.5 0 1 0 0.058,0.996 z m -14.4,-0.219 0.122,0.018 a 0.49964237,0.49964237 0 0 0 0.143,-0.989 l -0.122,-0.018 a 0.492,0.492 0 0 0 -0.566,0.423 0.5,0.5 0 0 0 0.423,0.566 z m 15.984,0.02 A 0.522,0.522 0 0 0 57.984,56.26 L 58.1,56.242 a 0.5,0.5 0 0 0 0.423,-0.566 0.491,0.491 0 0 0 -0.566,-0.423 l -0.127,0.019 a 0.5,0.5 0 0 0 0.076,0.994 z m -17.48,-0.27 0.02,0.003 a 0.492,0.492 0 0 0 0.575,-0.398 0.508,0.508 0 0 0 -0.406,-0.587 l -0.106,-0.02 c -0.272,-0.051 -0.484,0.139 -0.534,0.411 -0.049,0.271 0.179,0.541 0.451,0.591 z m 19.08,-1.006 -0.12,0.023 a 0.49952027,0.49952027 0 1 0 0.189,0.981 l 0.122,-0.023 A 0.5,0.5 0 1 0 59.506,54.99 Z m -20.681,0.654 0.031,0.008 a 0.5,0.5 0 0 0 0.249,-0.968 l -0.122,-0.031 c -0.265,-0.069 -0.494,0.106 -0.562,0.373 -0.067,0.266 0.138,0.549 0.404,0.618 z m 22.209,-0.997 -0.118,0.03 a 0.49975619,0.49975619 0 1 0 0.249,0.968 l 0.121,-0.031 a 0.49964813,0.49964813 0 1 0 -0.252,-0.967 z m -23.874,0.492 0.126,0.046 a 0.502,0.502 0 0 0 0.637,-0.307 0.5,0.5 0 0 0 -0.307,-0.637 l -0.104,-0.037 a 0.5,0.5 0 1 0 -0.352,0.935 z m 25.35,-0.945 -0.106,0.039 a 0.500009,0.500009 0 1 0 0.33,0.944 l 0.125,-0.045 A 0.50041108,0.50041108 0 0 0 62.51,54.194 Z M 50.073,57.568 H 49.95 c -0.276,0 -0.475,0.224 -0.475,0.5 0,0.276 0.248,0.5 0.524,0.5 h 0.074 a 0.5,0.5 0 0 0 0,-1 z M 48.489,57.55 48.366,57.547 c -0.283,-0.022 -0.505,0.212 -0.512,0.488 a 0.501,0.501 0 0 0 0.488,0.512 l 0.123,0.003 h 0.012 a 0.500036,0.500036 0 0 0 0.012,-1 z m 3.168,-0.004 -0.123,0.003 a 0.501,0.501 0 0 0 0.012,1 h 0.012 l 0.122,-0.003 a 0.5,0.5 0 0 0 0.488,-0.512 c -0.006,-0.275 -0.241,-0.513 -0.511,-0.488 z m -4.751,-0.053 -0.123,-0.006 a 0.517,0.517 0 0 0 -0.523,0.476 0.5,0.5 0 0 0 0.476,0.523 l 0.123,0.006 h 0.024 a 0.5,0.5 0 0 0 0.023,-0.999 z m 6.334,-0.007 -0.129,0.007 a 0.5,0.5 0 0 0 0.03,0.999 l 0.031,-10e-4 0.116,-0.006 A 0.50007624,0.50007624 0 1 0 53.24,57.486 Z m -7.915,-0.092 -0.122,-0.009 a 0.481,0.481 0 0 0 -0.505,0.463 c -0.021,0.275 0.214,0.517 0.489,0.538 l 0.067,0.005 0.036,0.001 a 0.5,0.5 0 0 0 0.035,-0.998 z m 9.489,-0.011 -0.116,0.009 a 0.5,0.5 0 0 0 0.036,0.999 l 0.037,-10e-4 0.128,-0.01 A 0.5003084,0.5003084 0 1 0 54.814,57.383 Z M 43.752,57.249 43.63,57.236 a 0.5,0.5 0 1 0 -0.108,0.994 l 0.123,0.013 a 0.5,0.5 0 0 0 0.107,-0.994 z m 12.64,-0.016 -0.127,0.014 a 0.501,0.501 0 0 0 0.118,0.994 L 56.5,58.228 a 0.50042207,0.50042207 0 1 0 -0.108,-0.995 z m -14.205,-0.18 -0.122,-0.018 a 0.49,0.49 0 0 0 -0.566,0.423 0.5,0.5 0 0 0 0.423,0.566 l 0.122,0.018 a 0.49964237,0.49964237 0 0 0 0.143,-0.989 z m 15.77,-0.021 -0.127,0.018 a 0.50004225,0.50004225 0 0 0 0.155,0.988 l 0.116,-0.018 a 0.5,0.5 0 1 0 -0.144,-0.988 z m -17.341,-0.24 -0.106,-0.02 c -0.273,-0.051 -0.484,0.139 -0.534,0.411 -0.05,0.272 0.178,0.542 0.45,0.591 l 0.02,0.003 a 0.492,0.492 0 0 0 0.575,-0.398 0.507,0.507 0 0 0 -0.405,-0.587 z m 18.89,-0.023 -0.12,0.023 a 0.49952027,0.49952027 0 1 0 0.189,0.981 L 59.697,57.75 A 0.5,0.5 0 1 0 59.506,56.769 Z M 39.105,56.462 38.983,56.431 c -0.266,-0.067 -0.494,0.106 -0.562,0.373 -0.067,0.267 0.138,0.55 0.404,0.619 l 0.031,0.008 a 0.50024044,0.50024044 0 0 0 0.249,-0.969 z m 21.929,-0.036 -0.118,0.03 a 0.49975619,0.49975619 0 1 0 0.249,0.968 l 0.121,-0.031 A 0.49964813,0.49964813 0 1 0 61.034,56.426 Z M 37.617,56.019 37.513,55.982 a 0.5,0.5 0 1 0 -0.352,0.936 l 0.126,0.046 a 0.502,0.502 0 0 0 0.637,-0.307 0.5,0.5 0 0 0 -0.307,-0.638 z m 24.951,0.964 c 0.055,0 0.11,-0.009 0.165,-0.028 l 0.125,-0.045 a 0.4999425,0.4999425 0 1 0 -0.349,-0.937 l -0.106,0.039 a 0.5,0.5 0 0 0 0.165,0.971 z M 50.073,59.347 H 49.95 c -0.276,0 -0.475,0.224 -0.475,0.5 0,0.276 0.248,0.5 0.524,0.5 h 0.074 a 0.5,0.5 0 0 0 0,-1 z M 48.489,59.33 48.366,59.327 a 0.492,0.492 0 0 0 -0.512,0.488 0.501,0.501 0 0 0 0.488,0.512 l 0.123,0.003 h 0.012 a 0.500036,0.500036 0 0 0 0.012,-1 z m 3.168,-0.004 -0.123,0.003 a 0.501,0.501 0 0 0 0.012,1 h 0.012 l 0.122,-0.003 a 0.5,0.5 0 0 0 0.488,-0.512 c -0.006,-0.276 -0.241,-0.506 -0.511,-0.488 z m -4.751,-0.054 -0.123,-0.006 a 0.509,0.509 0 0 0 -0.523,0.476 0.5,0.5 0 0 0 0.476,0.523 l 0.123,0.006 h 0.024 a 0.5,0.5 0 0 0 0.023,-0.999 z m 6.334,-0.007 -0.129,0.007 a 0.5,0.5 0 0 0 0.03,0.999 l 0.031,-10e-4 0.116,-0.006 a 0.5,0.5 0 0 0 0.476,-0.523 C 53.751,59.466 53.511,59.236 53.24,59.265 Z m -7.915,-0.092 -0.122,-0.009 a 0.48,0.48 0 0 0 -0.505,0.463 c -0.021,0.275 0.214,0.517 0.489,0.538 l 0.067,0.005 0.036,10e-4 a 0.5,0.5 0 0 0 0.035,-0.998 z m 9.489,-0.01 -0.116,0.009 a 0.5,0.5 0 0 0 0.036,0.999 l 0.037,-10e-4 0.128,-0.01 a 0.5,0.5 0 0 0 0.456,-0.54 0.499,0.499 0 0 0 -0.541,-0.457 z M 43.752,59.028 43.63,59.015 a 0.49992499,0.49992499 0 1 0 -0.108,0.994 l 0.123,0.013 a 0.5,0.5 0 0 0 0.107,-0.994 z m 12.64,-0.016 -0.127,0.014 a 0.501,0.501 0 0 0 0.118,0.994 L 56.5,60.007 a 0.50042207,0.50042207 0 1 0 -0.108,-0.995 z m -14.205,-0.18 -0.122,-0.018 a 0.491,0.491 0 0 0 -0.566,0.423 0.5,0.5 0 0 0 0.423,0.566 l 0.122,0.018 a 0.49964237,0.49964237 0 0 0 0.143,-0.989 z m 15.77,-0.021 -0.127,0.019 a 0.50004225,0.50004225 0 0 0 0.155,0.988 L 58.101,59.8 a 0.5,0.5 0 0 0 0.423,-0.566 0.493,0.493 0 0 0 -0.567,-0.423 z m -17.341,-0.24 -0.106,-0.02 c -0.273,-0.048 -0.484,0.139 -0.534,0.411 -0.05,0.272 0.178,0.542 0.45,0.591 l 0.02,0.003 a 0.492,0.492 0 0 0 0.575,-0.398 0.508,0.508 0 0 0 -0.405,-0.587 z m 18.89,-0.023 -0.12,0.023 a 0.49952027,0.49952027 0 1 0 0.189,0.981 l 0.122,-0.023 A 0.5,0.5 0 1 0 59.506,58.548 Z M 39.105,58.241 38.983,58.21 c -0.266,-0.069 -0.494,0.106 -0.562,0.373 -0.067,0.267 0.138,0.55 0.404,0.619 l 0.031,0.008 a 0.50024044,0.50024044 0 0 0 0.249,-0.969 z m 21.929,-0.036 -0.118,0.03 a 0.49975619,0.49975619 0 1 0 0.249,0.968 l 0.121,-0.031 A 0.49964813,0.49964813 0 1 0 61.034,58.205 Z M 37.617,57.798 37.513,57.761 a 0.5,0.5 0 1 0 -0.352,0.936 l 0.126,0.046 a 0.502,0.502 0 0 0 0.637,-0.307 0.5,0.5 0 0 0 -0.307,-0.638 z m 24.951,0.965 c 0.055,0 0.11,-0.009 0.165,-0.028 l 0.125,-0.045 a 0.4999425,0.4999425 0 1 0 -0.349,-0.937 l -0.106,0.039 a 0.5,0.5 0 0 0 0.165,0.971 z M 50,62.126 h 0.073 a 0.5,0.5 0 0 0 0,-1 H 49.95 c -0.276,0 -0.475,0.224 -0.475,0.5 0,0.276 0.248,0.5 0.525,0.5 z m -1.658,-0.021 0.123,0.003 h 0.012 a 0.500036,0.500036 0 0 0 0.012,-1 l -0.123,-0.003 a 0.497,0.497 0 0 0 -0.512,0.488 0.498,0.498 0 0 0 0.488,0.512 z m 3.203,0.002 h 0.013 l 0.122,-0.003 a 0.50014398,0.50014398 0 0 0 -0.024,-1 l -0.123,0.003 a 0.501,0.501 0 0 0 0.012,1 z m -4.81,-0.063 0.123,0.006 h 0.024 a 0.5,0.5 0 0 0 0.023,-0.999 l -0.123,-0.006 a 0.514,0.514 0 0 0 -0.523,0.476 0.5,0.5 0 0 0 0.476,0.523 z m 6.405,0.006 0.031,-10e-4 0.116,-0.006 A 0.5000525,0.5000525 0 0 0 53.24,61.044 l -0.129,0.007 a 0.5,0.5 0 0 0 0.029,0.999 z m -7.954,-0.106 0.067,0.005 0.036,0.001 a 0.5,0.5 0 0 0 0.035,-0.998 l -0.122,-0.009 a 0.481,0.481 0 0 0 -0.505,0.463 c -0.021,0.275 0.214,0.516 0.489,0.538 z m 9.628,-1.003 -0.116,0.009 a 0.5,0.5 0 0 0 0.036,0.999 l 0.037,-10e-4 0.128,-0.01 a 0.5003084,0.5003084 0 1 0 -0.085,-0.997 z m -11.291,0.847 0.123,0.013 a 0.5,0.5 0 0 0 0.107,-0.994 l -0.122,-0.013 a 0.5,0.5 0 0 0 -0.108,0.994 z m 12.799,0.014 0.06,-0.003 0.117,-0.013 a 0.5,0.5 0 0 0 0.443,-0.551 0.498,0.498 0 0 0 -0.551,-0.443 l -0.127,0.014 a 0.5,0.5 0 1 0 0.058,0.996 z m -14.4,-0.219 0.122,0.018 a 0.49964237,0.49964237 0 0 0 0.143,-0.989 l -0.122,-0.018 a 0.49,0.49 0 0 0 -0.566,0.423 0.5,0.5 0 0 0 0.423,0.566 z m 15.984,0.02 a 0.522,0.522 0 0 0 0.078,-0.006 L 58.1,61.579 a 0.5,0.5 0 0 0 0.423,-0.566 0.492,0.492 0 0 0 -0.566,-0.423 l -0.127,0.019 a 0.5,0.5 0 0 0 0.076,0.994 z m -17.48,-0.271 0.02,0.003 a 0.492,0.492 0 0 0 0.575,-0.398 0.508,0.508 0 0 0 -0.406,-0.587 l -0.106,-0.02 c -0.272,-0.05 -0.484,0.139 -0.534,0.411 -0.049,0.272 0.179,0.541 0.451,0.591 z m 19.08,-1.005 -0.12,0.023 a 0.49952027,0.49952027 0 1 0 0.189,0.981 l 0.122,-0.023 a 0.5,0.5 0 1 0 -0.191,-0.981 z m -20.681,0.653 0.031,0.008 a 0.5,0.5 0 0 0 0.249,-0.968 l -0.122,-0.031 c -0.265,-0.066 -0.494,0.105 -0.562,0.373 -0.067,0.267 0.138,0.55 0.404,0.618 z m 22.209,-0.996 -0.118,0.03 a 0.49975619,0.49975619 0 1 0 0.249,0.968 l 0.121,-0.031 a 0.49964813,0.49964813 0 1 0 -0.252,-0.967 z m -23.874,0.491 0.126,0.046 a 0.502,0.502 0 0 0 0.637,-0.307 0.5,0.5 0 0 0 -0.307,-0.637 L 37.512,59.54 a 0.5,0.5 0 1 0 -0.352,0.935 z m 25.35,-0.944 -0.106,0.039 a 0.500009,0.500009 0 1 0 0.33,0.944 l 0.125,-0.045 A 0.499,0.499 0 0 0 63.153,59.826 0.5,0.5 0 0 0 62.51,59.531 Z M 50.073,62.905 H 49.95 c -0.276,0 -0.475,0.224 -0.475,0.5 0,0.276 0.248,0.5 0.524,0.5 h 0.074 a 0.5,0.5 0 0 0 0,-1 z m -1.584,-0.018 -0.123,-0.003 a 0.502,0.502 0 0 0 -0.512,0.488 0.501,0.501 0 0 0 0.488,0.512 l 0.123,0.003 h 0.012 a 0.500036,0.500036 0 0 0 0.012,-1 z m 3.168,-0.004 -0.123,0.003 a 0.501,0.501 0 0 0 0.012,1 h 0.012 l 0.122,-0.003 a 0.5,0.5 0 0 0 0.488,-0.512 0.507,0.507 0 0 0 -0.511,-0.488 z M 46.906,62.83 46.783,62.824 a 0.52,0.52 0 0 0 -0.523,0.476 0.5,0.5 0 0 0 0.476,0.523 l 0.123,0.006 h 0.024 a 0.5,0.5 0 0 0 0.023,-0.999 z m 6.334,-0.007 -0.129,0.007 a 0.5,0.5 0 0 0 0.03,0.999 l 0.031,-10e-4 0.116,-0.006 A 0.50007624,0.50007624 0 1 0 53.24,62.823 Z M 45.325,62.73 45.203,62.721 a 0.481,0.481 0 0 0 -0.505,0.463 c -0.021,0.275 0.214,0.517 0.489,0.538 l 0.067,0.005 0.036,0.001 a 0.5,0.5 0 0 0 0.035,-0.998 z m 9.489,-0.01 -0.116,0.009 a 0.5,0.5 0 0 0 0.036,0.999 l 0.037,-0.001 0.128,-0.01 A 0.5003084,0.5003084 0 1 0 54.814,62.72 Z M 43.752,62.586 43.63,62.573 a 0.501,0.501 0 0 0 -0.108,0.994 l 0.123,0.013 a 0.5,0.5 0 0 0 0.107,-0.994 z m 12.64,-0.016 -0.127,0.014 a 0.501,0.501 0 0 0 0.118,0.994 L 56.5,63.565 A 0.50042207,0.50042207 0 0 0 56.392,62.57 Z M 42.187,62.39 42.065,62.372 a 0.49,0.49 0 0 0 -0.566,0.423 0.5,0.5 0 0 0 0.423,0.566 l 0.122,0.018 a 0.49964237,0.49964237 0 0 0 0.143,-0.989 z m 15.77,-0.021 -0.127,0.019 a 0.50004225,0.50004225 0 0 0 0.155,0.988 l 0.116,-0.018 a 0.5,0.5 0 0 0 0.423,-0.566 0.492,0.492 0 0 0 -0.567,-0.423 z m -17.341,-0.24 -0.106,-0.02 c -0.273,-0.051 -0.484,0.139 -0.534,0.411 -0.05,0.272 0.178,0.542 0.45,0.591 l 0.02,0.003 a 0.492,0.492 0 0 0 0.575,-0.398 0.507,0.507 0 0 0 -0.405,-0.587 z m 18.89,-0.024 -0.12,0.023 a 0.49952027,0.49952027 0 1 0 0.189,0.981 l 0.122,-0.023 A 0.5,0.5 0 1 0 59.506,62.105 Z M 39.105,61.799 38.983,61.768 c -0.266,-0.069 -0.494,0.105 -0.562,0.373 -0.067,0.267 0.138,0.55 0.404,0.619 l 0.031,0.008 a 0.50024044,0.50024044 0 0 0 0.249,-0.969 z m 21.929,-0.036 -0.118,0.03 a 0.49975619,0.49975619 0 1 0 0.249,0.968 L 61.286,62.73 A 0.49964813,0.49964813 0 1 0 61.034,61.763 Z M 37.617,61.355 37.513,61.318 a 0.5,0.5 0 1 0 -0.352,0.936 l 0.126,0.046 a 0.502,0.502 0 0 0 0.637,-0.307 0.501,0.501 0 0 0 -0.307,-0.638 z m 24.951,0.965 c 0.055,0 0.11,-0.009 0.165,-0.028 l 0.125,-0.045 A 0.4999425,0.4999425 0 1 0 62.509,61.31 l -0.106,0.039 a 0.5,0.5 0 0 0 0.165,0.971 z M 50,65.684 h 0.073 a 0.5,0.5 0 0 0 0,-1 H 49.95 c -0.276,0 -0.475,0.224 -0.475,0.5 0,0.276 0.248,0.5 0.525,0.5 z m -1.658,-0.021 0.123,0.003 h 0.012 a 0.500036,0.500036 0 0 0 0.012,-1 l -0.123,-0.003 c -0.283,-0.024 -0.505,0.212 -0.512,0.488 a 0.5,0.5 0 0 0 0.488,0.512 z m 3.203,0.002 h 0.013 l 0.122,-0.003 a 0.5,0.5 0 0 0 0.488,-0.512 c -0.007,-0.276 -0.241,-0.516 -0.512,-0.488 l -0.123,0.003 a 0.501,0.501 0 0 0 0.012,1 z m -4.81,-0.063 0.123,0.006 h 0.024 a 0.5,0.5 0 0 0 0.023,-0.999 l -0.123,-0.006 a 0.512,0.512 0 0 0 -0.523,0.476 c -0.013,0.275 0.2,0.509 0.476,0.523 z m 6.405,0.005 0.031,-0.001 0.116,-0.006 a 0.5,0.5 0 0 0 0.476,-0.523 c -0.013,-0.275 -0.252,-0.5 -0.523,-0.476 l -0.129,0.007 a 0.5,0.5 0 0 0 0.029,0.999 z m -7.954,-0.106 0.067,0.005 0.036,0.001 a 0.5,0.5 0 0 0 0.035,-0.998 L 45.202,64.5 a 0.482,0.482 0 0 0 -0.505,0.463 c -0.021,0.275 0.214,0.517 0.489,0.538 z m 9.628,-1.002 -0.116,0.009 a 0.5,0.5 0 0 0 0.036,0.999 l 0.037,-0.001 0.128,-0.01 a 0.5003084,0.5003084 0 1 0 -0.085,-0.997 z m -11.291,0.846 0.123,0.013 a 0.5,0.5 0 0 0 0.107,-0.994 l -0.122,-0.013 a 0.498,0.498 0 0 0 -0.551,0.443 0.5,0.5 0 0 0 0.443,0.551 z m 12.799,0.014 0.06,-0.003 0.117,-0.013 a 0.5,0.5 0 1 0 -0.108,-0.994 l -0.127,0.014 a 0.5,0.5 0 1 0 0.058,0.996 z m -14.4,-0.219 0.122,0.018 a 0.49964237,0.49964237 0 0 0 0.143,-0.989 l -0.122,-0.018 a 0.489,0.489 0 0 0 -0.566,0.423 0.5,0.5 0 0 0 0.423,0.566 z m 15.984,0.02 a 0.522,0.522 0 0 0 0.078,-0.006 L 58.1,65.136 a 0.5,0.5 0 0 0 0.423,-0.566 0.492,0.492 0 0 0 -0.566,-0.423 l -0.127,0.019 a 0.5,0.5 0 0 0 0.076,0.994 z m -17.48,-0.27 0.02,0.003 a 0.492,0.492 0 0 0 0.575,-0.398 0.508,0.508 0 0 0 -0.406,-0.587 l -0.106,-0.02 c -0.272,-0.048 -0.484,0.14 -0.534,0.411 -0.049,0.271 0.179,0.541 0.451,0.591 z m 19.08,-1.006 -0.12,0.023 a 0.49952027,0.49952027 0 1 0 0.189,0.981 l 0.122,-0.023 a 0.5,0.5 0 1 0 -0.191,-0.981 z m -20.681,0.654 0.031,0.008 a 0.5,0.5 0 0 0 0.249,-0.968 l -0.122,-0.031 c -0.265,-0.066 -0.494,0.105 -0.562,0.373 -0.067,0.267 0.138,0.549 0.404,0.618 z m 22.209,-0.996 -0.118,0.03 a 0.49975619,0.49975619 0 1 0 0.249,0.968 l 0.121,-0.031 a 0.499,0.499 0 0 0 0.358,-0.609 0.497,0.497 0 0 0 -0.61,-0.358 z m -23.874,0.491 0.126,0.046 a 0.502,0.502 0 0 0 0.637,-0.307 0.5,0.5 0 0 0 -0.307,-0.637 l -0.104,-0.037 a 0.5,0.5 0 1 0 -0.352,0.935 z m 25.35,-0.945 -0.106,0.039 a 0.500009,0.500009 0 1 0 0.33,0.944 l 0.125,-0.045 A 0.499,0.499 0 0 0 63.153,63.383 0.502,0.502 0 0 0 62.51,63.088 Z M 50,67.463 h 0.073 a 0.5,0.5 0 0 0 0,-1 H 49.95 c -0.276,0 -0.475,0.224 -0.475,0.5 0,0.276 0.248,0.5 0.525,0.5 z m -1.658,-0.021 0.123,0.003 h 0.012 a 0.500036,0.500036 0 0 0 0.012,-1 l -0.123,-0.003 a 0.49,0.49 0 0 0 -0.512,0.488 0.498,0.498 0 0 0 0.488,0.512 z m 3.203,0.002 h 0.013 l 0.122,-0.003 a 0.5,0.5 0 0 0 0.488,-0.512 c -0.007,-0.276 -0.241,-0.508 -0.512,-0.488 l -0.123,0.003 a 0.501,0.501 0 0 0 0.012,1 z m -4.81,-0.063 0.123,0.006 h 0.024 a 0.5,0.5 0 0 0 0.023,-0.999 l -0.123,-0.006 a 0.516,0.516 0 0 0 -0.523,0.476 0.5,0.5 0 0 0 0.476,0.523 z m 6.405,0.006 0.031,-0.001 0.116,-0.006 A 0.5000525,0.5000525 0 0 0 53.24,66.381 l -0.129,0.007 a 0.5,0.5 0 0 0 0.029,0.999 z m -7.954,-0.106 0.067,0.005 0.036,0.001 a 0.5,0.5 0 0 0 0.035,-0.998 L 45.202,66.28 a 0.482,0.482 0 0 0 -0.505,0.463 c -0.021,0.275 0.214,0.516 0.489,0.538 z m 9.628,-1.003 -0.116,0.009 a 0.5,0.5 0 0 0 0.036,0.999 l 0.037,-0.001 0.128,-0.01 a 0.5003084,0.5003084 0 1 0 -0.085,-0.997 z m -11.291,0.847 0.123,0.013 a 0.5,0.5 0 0 0 0.107,-0.994 L 43.63,66.13 a 0.499,0.499 0 0 0 -0.551,0.443 0.502,0.502 0 0 0 0.444,0.552 z m 12.799,0.014 0.06,-0.003 0.117,-0.013 a 0.5,0.5 0 1 0 -0.108,-0.994 l -0.127,0.014 a 0.5,0.5 0 1 0 0.058,0.996 z m -14.4,-0.22 0.122,0.018 a 0.49964237,0.49964237 0 0 0 0.143,-0.989 L 42.065,65.93 a 0.49,0.49 0 0 0 -0.566,0.423 0.5,0.5 0 0 0 0.423,0.566 z m 15.984,0.02 a 0.522,0.522 0 0 0 0.078,-0.006 L 58.1,66.915 a 0.5,0.5 0 0 0 0.423,-0.566 0.49,0.49 0 0 0 -0.566,-0.423 l -0.127,0.019 a 0.5,0.5 0 0 0 0.076,0.994 z m -17.48,-0.27 0.02,0.003 a 0.492,0.492 0 0 0 0.575,-0.398 0.508,0.508 0 0 0 -0.406,-0.587 l -0.106,-0.02 c -0.272,-0.049 -0.484,0.139 -0.534,0.411 -0.049,0.272 0.179,0.541 0.451,0.591 z m 19.08,-1.005 -0.12,0.023 a 0.49952027,0.49952027 0 1 0 0.189,0.981 l 0.122,-0.023 a 0.5,0.5 0 1 0 -0.191,-0.981 z m -20.681,0.653 0.031,0.008 a 0.5,0.5 0 0 0 0.249,-0.968 l -0.122,-0.031 c -0.265,-0.068 -0.494,0.106 -0.562,0.373 -0.067,0.267 0.138,0.55 0.404,0.618 z m 22.209,-0.996 -0.118,0.03 a 0.49975619,0.49975619 0 1 0 0.249,0.968 l 0.121,-0.031 a 0.49964813,0.49964813 0 1 0 -0.252,-0.967 z m -23.874,0.491 0.126,0.046 a 0.502,0.502 0 0 0 0.637,-0.307 0.5,0.5 0 0 0 -0.307,-0.637 l -0.104,-0.037 a 0.5,0.5 0 1 0 -0.352,0.935 z m 25.35,-0.944 -0.106,0.039 a 0.500009,0.500009 0 1 0 0.33,0.944 l 0.125,-0.045 A 0.499,0.499 0 0 0 63.153,65.163 0.5,0.5 0 0 0 62.51,64.868 Z M 50,69.241 h 0.073 a 0.5,0.5 0 0 0 0,-1 H 49.95 c -0.276,0 -0.475,0.224 -0.475,0.5 0,0.276 0.248,0.5 0.525,0.5 z m -1.658,-0.02 0.123,0.003 h 0.012 a 0.500036,0.500036 0 0 0 0.012,-1 l -0.123,-0.003 a 0.50014398,0.50014398 0 1 0 -0.024,1 z m 3.203,0.002 h 0.013 L 51.68,69.22 a 0.50014398,0.50014398 0 0 0 -0.024,-1 l -0.123,0.003 a 0.501,0.501 0 0 0 0.012,1 z m -4.81,-0.064 0.123,0.006 h 0.024 a 0.5,0.5 0 0 0 0.023,-0.999 L 46.782,68.16 a 0.51,0.51 0 0 0 -0.523,0.476 0.5,0.5 0 0 0 0.476,0.523 z m 6.405,0.006 0.031,-0.001 0.116,-0.006 a 0.5,0.5 0 0 0 0.476,-0.523 C 53.75,68.36 53.511,68.132 53.24,68.159 l -0.129,0.007 a 0.5,0.5 0 0 0 0.029,0.999 z m -7.954,-0.106 0.067,0.005 0.036,0.001 a 0.5,0.5 0 0 0 0.035,-0.998 l -0.122,-0.009 a 0.481,0.481 0 0 0 -0.505,0.463 c -0.02,0.275 0.214,0.517 0.489,0.538 z m 9.628,-1.002 -0.116,0.009 a 0.5,0.5 0 0 0 0.036,0.999 l 0.037,-0.001 0.128,-0.01 a 0.5003084,0.5003084 0 1 0 -0.085,-0.997 z m -11.291,0.846 0.123,0.013 a 0.5,0.5 0 0 0 0.107,-0.994 l -0.122,-0.013 a 0.5,0.5 0 0 0 -0.108,0.994 z m 12.799,0.014 0.06,-0.003 0.117,-0.013 a 0.5,0.5 0 0 0 0.443,-0.551 0.498,0.498 0 0 0 -0.551,-0.443 l -0.127,0.014 a 0.5,0.5 0 1 0 0.058,0.996 z m -14.4,-0.219 0.122,0.018 a 0.49964237,0.49964237 0 0 0 0.143,-0.989 l -0.122,-0.018 a 0.492,0.492 0 0 0 -0.566,0.423 0.5,0.5 0 0 0 0.423,0.566 z m 15.984,0.02 a 0.522,0.522 0 0 0 0.078,-0.006 L 58.1,68.694 a 0.5,0.5 0 0 0 0.423,-0.566 0.492,0.492 0 0 0 -0.566,-0.423 l -0.127,0.019 a 0.5,0.5 0 0 0 0.076,0.994 z m -17.48,-0.271 0.02,0.003 a 0.492,0.492 0 0 0 0.575,-0.398 0.508,0.508 0 0 0 -0.406,-0.587 l -0.106,-0.02 c -0.272,-0.05 -0.484,0.139 -0.534,0.411 -0.049,0.272 0.179,0.541 0.451,0.591 z m 19.08,-1.005 -0.12,0.023 a 0.49952027,0.49952027 0 1 0 0.189,0.981 l 0.122,-0.023 a 0.5,0.5 0 1 0 -0.191,-0.981 z m -20.681,0.654 0.031,0.008 a 0.5,0.5 0 0 0 0.249,-0.968 l -0.122,-0.031 c -0.265,-0.066 -0.494,0.105 -0.562,0.373 -0.067,0.266 0.138,0.549 0.404,0.618 z m 22.209,-0.997 -0.118,0.03 a 0.49975619,0.49975619 0 1 0 0.249,0.968 l 0.121,-0.031 a 0.49964813,0.49964813 0 1 0 -0.252,-0.967 z m -23.874,0.491 0.126,0.046 a 0.502,0.502 0 0 0 0.637,-0.307 0.5,0.5 0 0 0 -0.307,-0.637 L 37.512,66.655 A 0.49953203,0.49953203 0 1 0 37.16,67.59 Z m 25.35,-0.944 -0.106,0.039 a 0.500009,0.500009 0 1 0 0.33,0.944 l 0.125,-0.045 A 0.50041108,0.50041108 0 1 0 62.51,66.646 Z M 50,71.021 h 0.073 a 0.5,0.5 0 0 0 0,-1 H 49.95 c -0.276,0 -0.475,0.224 -0.475,0.5 0,0.276 0.248,0.5 0.525,0.5 z M 48.342,71 l 0.123,0.003 h 0.012 a 0.500036,0.500036 0 0 0 0.012,-1 L 48.365,70 a 0.50013223,0.50013223 0 1 0 -0.023,1 z m 3.203,0.002 h 0.013 l 0.122,-0.003 a 0.50014398,0.50014398 0 0 0 -0.024,-1 l -0.123,0.003 a 0.501,0.501 0 0 0 0.012,1 z m -4.81,-0.064 0.123,0.006 h 0.024 a 0.5,0.5 0 0 0 0.023,-0.999 l -0.123,-0.006 a 0.514,0.514 0 0 0 -0.523,0.476 0.5,0.5 0 0 0 0.476,0.523 z m 6.405,0.006 0.031,-0.001 0.116,-0.006 A 0.5000525,0.5000525 0 0 0 53.24,69.938 l -0.129,0.007 a 0.5,0.5 0 0 0 0.029,0.999 z m -7.954,-0.106 0.067,0.005 0.036,10e-4 a 0.5,0.5 0 0 0 0.035,-0.998 L 45.202,69.837 A 0.481,0.481 0 0 0 44.697,70.3 c -0.02,0.275 0.214,0.517 0.489,0.538 z m 9.628,-1.002 -0.116,0.009 a 0.5,0.5 0 0 0 0.036,0.999 l 0.037,-10e-4 0.128,-0.01 a 0.5003084,0.5003084 0 1 0 -0.085,-0.997 z m -11.291,0.846 0.123,0.013 a 0.5,0.5 0 0 0 0.107,-0.994 l -0.122,-0.013 a 0.501,0.501 0 0 0 -0.108,0.994 z m 12.799,0.014 0.06,-0.003 0.117,-0.013 A 0.5,0.5 0 1 0 56.391,69.686 L 56.264,69.7 a 0.5,0.5 0 1 0 0.058,0.996 z m -14.4,-0.219 0.122,0.018 a 0.49964237,0.49964237 0 0 0 0.143,-0.989 l -0.122,-0.018 a 0.49,0.49 0 0 0 -0.566,0.423 0.5,0.5 0 0 0 0.423,0.566 z m 15.984,0.02 a 0.522,0.522 0 0 0 0.078,-0.006 L 58.1,70.473 a 0.5,0.5 0 0 0 0.423,-0.566 0.49,0.49 0 0 0 -0.566,-0.423 l -0.127,0.019 a 0.5,0.5 0 0 0 0.076,0.994 z m -17.48,-0.27 0.02,0.003 a 0.492,0.492 0 0 0 0.575,-0.398 0.508,0.508 0 0 0 -0.406,-0.587 l -0.106,-0.02 c -0.272,-0.047 -0.484,0.139 -0.534,0.411 -0.049,0.271 0.179,0.541 0.451,0.591 z m 19.08,-1.006 -0.12,0.023 a 0.49952027,0.49952027 0 1 0 0.189,0.981 l 0.122,-0.023 a 0.5,0.5 0 1 0 -0.191,-0.981 z m -20.681,0.654 0.031,0.008 a 0.5,0.5 0 0 0 0.249,-0.968 l -0.122,-0.031 c -0.265,-0.068 -0.494,0.106 -0.562,0.373 -0.067,0.266 0.138,0.549 0.404,0.618 z m 22.209,-0.997 -0.118,0.03 a 0.49975619,0.49975619 0 1 0 0.249,0.968 l 0.121,-0.031 a 0.49964813,0.49964813 0 1 0 -0.252,-0.967 z m -23.874,0.492 0.126,0.046 a 0.502,0.502 0 0 0 0.637,-0.307 0.5,0.5 0 0 0 -0.307,-0.637 L 37.512,68.435 A 0.49953203,0.49953203 0 1 0 37.16,69.37 Z m 25.35,-0.945 -0.106,0.039 a 0.500009,0.500009 0 1 0 0.33,0.944 l 0.125,-0.045 A 0.50041108,0.50041108 0 0 0 62.51,68.425 Z M 50.073,71.799 H 49.95 c -0.276,0 -0.475,0.224 -0.475,0.5 0,0.276 0.248,0.5 0.524,0.5 h 0.074 a 0.5,0.5 0 0 0 0,-1 z m -1.584,-0.018 -0.123,-0.003 c -0.283,0.008 -0.505,0.212 -0.512,0.488 a 0.501,0.501 0 0 0 0.488,0.512 l 0.123,0.003 h 0.012 a 0.500036,0.500036 0 0 0 0.012,-1 z m 3.168,-0.004 -0.123,0.003 a 0.501,0.501 0 0 0 0.012,1 h 0.013 l 0.122,-0.003 a 0.5,0.5 0 0 0 0.488,-0.512 0.513,0.513 0 0 0 -0.512,-0.488 z m -4.751,-0.053 -0.123,-0.006 c -0.257,-0.003 -0.509,0.2 -0.523,0.476 a 0.5,0.5 0 0 0 0.476,0.523 l 0.123,0.006 h 0.024 a 0.5,0.5 0 0 0 0.023,-0.999 z m 6.334,-0.007 -0.129,0.007 a 0.5,0.5 0 0 0 0.03,0.999 l 0.031,-0.001 0.116,-0.006 A 0.50007624,0.50007624 0 1 0 53.24,71.717 Z m -7.915,-0.092 -0.122,-0.009 a 0.482,0.482 0 0 0 -0.505,0.463 c -0.02,0.275 0.214,0.517 0.489,0.538 l 0.067,0.005 0.036,0.001 a 0.5,0.5 0 0 0 0.035,-0.998 z m 9.489,-0.011 -0.116,0.009 a 0.5,0.5 0 0 0 0.036,0.999 l 0.037,-0.001 0.128,-0.01 A 0.5003084,0.5003084 0 1 0 54.814,71.614 Z M 43.752,71.48 43.63,71.467 a 0.5,0.5 0 1 0 -0.108,0.994 l 0.123,0.013 a 0.5,0.5 0 0 0 0.107,-0.994 z m 12.64,-0.016 -0.127,0.014 a 0.501,0.501 0 0 0 0.118,0.994 L 56.5,72.459 a 0.50042207,0.50042207 0 1 0 -0.108,-0.995 z m -14.205,-0.18 -0.122,-0.018 a 0.491,0.491 0 0 0 -0.566,0.423 0.5,0.5 0 0 0 0.423,0.566 l 0.122,0.018 a 0.49964237,0.49964237 0 0 0 0.143,-0.989 z m 15.77,-0.021 -0.127,0.019 a 0.50004225,0.50004225 0 0 0 0.155,0.988 l 0.116,-0.018 a 0.5,0.5 0 0 0 0.423,-0.566 0.493,0.493 0 0 0 -0.567,-0.423 z m -17.341,-0.24 -0.106,-0.02 c -0.273,-0.048 -0.484,0.139 -0.534,0.411 -0.05,0.272 0.178,0.542 0.45,0.591 l 0.02,0.003 A 0.492,0.492 0 0 0 41.021,71.61 0.507,0.507 0 0 0 40.616,71.023 Z M 59.506,71 l -0.12,0.023 a 0.49952027,0.49952027 0 1 0 0.189,0.981 l 0.122,-0.023 A 0.5,0.5 0 1 0 59.506,71 Z M 39.105,70.693 38.983,70.662 c -0.266,-0.066 -0.494,0.105 -0.562,0.373 -0.067,0.267 0.138,0.55 0.404,0.619 l 0.031,0.008 a 0.50024044,0.50024044 0 0 0 0.249,-0.969 z m 21.929,-0.036 -0.118,0.03 a 0.49975619,0.49975619 0 1 0 0.249,0.968 l 0.121,-0.031 a 0.499,0.499 0 0 0 0.358,-0.609 0.497,0.497 0 0 0 -0.61,-0.358 z M 37.617,70.25 37.513,70.213 a 0.5,0.5 0 1 0 -0.352,0.936 l 0.126,0.046 a 0.502,0.502 0 0 0 0.637,-0.307 0.5,0.5 0 0 0 -0.307,-0.638 z m 24.951,0.964 c 0.055,0 0.11,-0.009 0.165,-0.028 l 0.125,-0.045 a 0.4999425,0.4999425 0 1 0 -0.349,-0.937 l -0.106,0.039 a 0.5,0.5 0 0 0 0.165,0.971 z M 50,74.578 h 0.073 a 0.5,0.5 0 0 0 0,-1 H 49.95 c -0.276,0 -0.475,0.224 -0.475,0.5 0,0.276 0.248,0.5 0.525,0.5 z m -1.658,-0.02 0.123,0.003 h 0.012 a 0.500036,0.500036 0 0 0 0.012,-1 l -0.123,-0.003 a 0.489,0.489 0 0 0 -0.512,0.488 0.5,0.5 0 0 0 0.488,0.512 z m 3.203,0.002 h 0.013 l 0.122,-0.003 a 0.5,0.5 0 0 0 0.488,-0.512 c -0.007,-0.276 -0.241,-0.51 -0.512,-0.488 l -0.123,0.003 a 0.501,0.501 0 0 0 0.012,1 z m -4.81,-0.064 0.123,0.006 h 0.024 a 0.5,0.5 0 0 0 0.023,-0.999 l -0.123,-0.006 a 0.512,0.512 0 0 0 -0.523,0.476 0.5,0.5 0 0 0 0.476,0.523 z m 6.405,0.006 0.031,-10e-4 0.116,-0.006 a 0.5,0.5 0 0 0 0.476,-0.523 c -0.013,-0.275 -0.252,-0.5 -0.523,-0.476 l -0.129,0.007 a 0.5,0.5 0 0 0 0.029,0.999 z m -7.954,-0.106 0.067,0.005 0.036,0.001 a 0.5,0.5 0 0 0 0.035,-0.998 l -0.122,-0.009 a 0.483,0.483 0 0 0 -0.505,0.463 c -0.021,0.275 0.214,0.517 0.489,0.538 z m 9.628,-1.002 -0.116,0.009 a 0.5,0.5 0 0 0 0.036,0.999 l 0.037,-0.001 0.128,-0.01 a 0.5003084,0.5003084 0 1 0 -0.085,-0.997 z m -11.291,0.846 0.123,0.013 a 0.5,0.5 0 0 0 0.107,-0.994 l -0.122,-0.013 a 0.49992499,0.49992499 0 1 0 -0.108,0.994 z m 12.799,0.014 0.06,-0.003 0.117,-0.013 a 0.5,0.5 0 1 0 -0.108,-0.994 l -0.127,0.014 a 0.5,0.5 0 1 0 0.058,0.996 z m -14.4,-0.219 0.122,0.018 a 0.49964237,0.49964237 0 0 0 0.143,-0.989 l -0.122,-0.018 a 0.49,0.49 0 0 0 -0.566,0.423 0.5,0.5 0 0 0 0.423,0.566 z m 15.984,0.02 a 0.522,0.522 0 0 0 0.078,-0.006 L 58.1,74.031 a 0.5,0.5 0 0 0 0.423,-0.566 0.49,0.49 0 0 0 -0.566,-0.423 l -0.127,0.019 a 0.5,0.5 0 0 0 0.076,0.994 z m -17.48,-0.271 0.02,0.003 a 0.492,0.492 0 0 0 0.575,-0.398 0.508,0.508 0 0 0 -0.406,-0.587 l -0.106,-0.02 c -0.272,-0.05 -0.484,0.139 -0.534,0.411 -0.049,0.272 0.179,0.541 0.451,0.591 z m 19.08,-1.005 -0.12,0.023 a 0.49952027,0.49952027 0 1 0 0.189,0.981 l 0.122,-0.023 a 0.5,0.5 0 1 0 -0.191,-0.981 z m -20.681,0.654 0.031,0.008 a 0.5,0.5 0 0 0 0.249,-0.968 l -0.122,-0.031 c -0.265,-0.068 -0.494,0.106 -0.562,0.373 -0.067,0.266 0.138,0.549 0.404,0.618 z m 22.209,-0.997 -0.118,0.03 a 0.49975619,0.49975619 0 1 0 0.249,0.968 l 0.121,-0.031 a 0.49964813,0.49964813 0 1 0 -0.252,-0.967 z m -23.874,0.491 0.126,0.046 a 0.502,0.502 0 0 0 0.637,-0.307 0.5,0.5 0 0 0 -0.307,-0.637 l -0.104,-0.037 a 0.49953203,0.49953203 0 1 0 -0.352,0.935 z m 25.35,-0.944 -0.106,0.039 a 0.500009,0.500009 0 1 0 0.33,0.944 l 0.125,-0.045 A 0.499,0.499 0 0 0 63.153,72.278 0.5,0.5 0 0 0 62.51,71.983 Z M 50,85.251 h 0.073 a 0.5,0.5 0 0 0 0,-1 H 49.95 c -0.276,0 -0.475,0.224 -0.475,0.5 0,0.276 0.248,0.5 0.525,0.5 z m -1.658,-0.02 0.123,0.003 h 0.012 a 0.500036,0.500036 0 0 0 0.012,-1 l -0.123,-0.003 a 0.50014398,0.50014398 0 1 0 -0.024,1 z m 3.204,0.002 h 0.012 L 51.68,85.23 a 0.50014398,0.50014398 0 0 0 -0.024,-1 l -0.123,0.003 a 0.501,0.501 0 0 0 0.013,1 z m -4.811,-0.064 0.123,0.006 h 0.024 a 0.5,0.5 0 0 0 0.023,-0.999 L 46.782,84.17 a 0.517,0.517 0 0 0 -0.523,0.476 0.5,0.5 0 0 0 0.476,0.523 z m 6.405,0.006 0.031,-10e-4 0.116,-0.006 A 0.5000525,0.5000525 0 0 0 53.24,84.169 l -0.129,0.007 a 0.5,0.5 0 0 0 0.029,0.999 z m -7.954,-0.106 0.067,0.005 0.036,0.001 a 0.5,0.5 0 0 0 0.035,-0.998 l -0.122,-0.009 c -0.271,-0.021 -0.485,0.189 -0.505,0.463 -0.021,0.275 0.214,0.517 0.489,0.538 z m 9.628,-1.002 -0.116,0.009 a 0.5,0.5 0 0 0 0.036,0.999 l 0.037,-0.001 0.128,-0.01 a 0.5003084,0.5003084 0 1 0 -0.085,-0.997 z m -11.291,0.846 0.123,0.013 a 0.5,0.5 0 0 0 0.107,-0.994 l -0.122,-0.013 a 0.501,0.501 0 0 0 -0.108,0.994 z m 12.799,0.014 0.06,-0.003 0.117,-0.013 a 0.5,0.5 0 1 0 -0.108,-0.994 l -0.127,0.014 a 0.5,0.5 0 1 0 0.058,0.996 z m -14.4,-0.219 0.122,0.018 a 0.49964237,0.49964237 0 0 0 0.143,-0.989 l -0.122,-0.018 a 0.491,0.491 0 0 0 -0.566,0.423 0.5,0.5 0 0 0 0.423,0.566 z m 15.984,0.02 a 0.522,0.522 0 0 0 0.078,-0.006 L 58.1,84.704 a 0.5,0.5 0 0 0 0.423,-0.566 0.493,0.493 0 0 0 -0.566,-0.423 l -0.127,0.019 a 0.5,0.5 0 0 0 0.076,0.994 z m -17.48,-0.27 0.02,0.003 a 0.492,0.492 0 0 0 0.575,-0.398 0.508,0.508 0 0 0 -0.406,-0.587 l -0.106,-0.02 c -0.272,-0.049 -0.484,0.139 -0.534,0.411 -0.049,0.271 0.179,0.541 0.451,0.591 z m 19.08,-1.006 -0.12,0.023 a 0.49952027,0.49952027 0 1 0 0.189,0.981 l 0.122,-0.023 a 0.5,0.5 0 1 0 -0.191,-0.981 z m -20.681,0.654 0.031,0.008 a 0.5,0.5 0 0 0 0.249,-0.968 l -0.122,-0.031 c -0.265,-0.068 -0.494,0.106 -0.562,0.373 -0.067,0.266 0.138,0.549 0.404,0.618 z m 22.209,-0.997 -0.118,0.03 a 0.49975619,0.49975619 0 1 0 0.249,0.968 l 0.121,-0.031 a 0.49964813,0.49964813 0 1 0 -0.252,-0.967 z m -23.874,0.492 0.126,0.046 a 0.502,0.502 0 0 0 0.637,-0.307 0.5,0.5 0 0 0 -0.307,-0.637 l -0.104,-0.037 a 0.49953203,0.49953203 0 1 0 -0.352,0.935 z m 25.35,-0.945 -0.106,0.039 a 0.500009,0.500009 0 1 0 0.33,0.944 l 0.125,-0.045 A 0.502,0.502 0 0 0 62.51,82.656 Z M 50.073,82.472 H 49.95 c -0.276,0 -0.475,0.224 -0.475,0.5 0,0.276 0.248,0.5 0.524,0.5 h 0.074 a 0.5,0.5 0 0 0 0,-1 z m -1.584,-0.017 -0.123,-0.003 a 0.492,0.492 0 0 0 -0.512,0.488 0.501,0.501 0 0 0 0.488,0.512 l 0.123,0.003 h 0.012 a 0.500036,0.500036 0 0 0 0.012,-1 z m 3.168,-0.004 -0.123,0.003 a 0.501,0.501 0 0 0 0.012,1 h 0.012 l 0.122,-0.003 a 0.5,0.5 0 0 0 0.488,-0.512 0.497,0.497 0 0 0 -0.511,-0.488 z m -4.751,-0.054 -0.123,-0.006 a 0.512,0.512 0 0 0 -0.523,0.476 0.5,0.5 0 0 0 0.476,0.523 l 0.123,0.006 h 0.024 a 0.5,0.5 0 0 0 0.023,-0.999 z m 6.334,-0.007 -0.129,0.007 a 0.5,0.5 0 0 0 0.03,0.999 l 0.031,-0.001 0.116,-0.006 A 0.5,0.5 0 0 0 53.764,82.866 0.497,0.497 0 0 0 53.24,82.39 Z m -7.915,-0.092 -0.122,-0.009 c -0.271,-0.021 -0.485,0.189 -0.505,0.463 -0.021,0.275 0.214,0.517 0.489,0.538 l 0.067,0.005 0.036,0.001 a 0.5,0.5 0 0 0 0.035,-0.998 z m 9.489,-0.01 -0.116,0.009 a 0.5,0.5 0 0 0 0.036,0.999 l 0.037,-0.001 0.128,-0.01 A 0.5003084,0.5003084 0 1 0 54.814,82.288 Z M 43.752,82.153 43.63,82.14 a 0.5,0.5 0 1 0 -0.108,0.994 l 0.123,0.013 a 0.5,0.5 0 0 0 0.107,-0.994 z m 12.64,-0.016 -0.127,0.014 a 0.501,0.501 0 0 0 0.118,0.994 L 56.5,83.132 a 0.50042207,0.50042207 0 1 0 -0.108,-0.995 z m -14.205,-0.18 -0.122,-0.018 a 0.49,0.49 0 0 0 -0.566,0.423 0.5,0.5 0 0 0 0.423,0.566 l 0.122,0.018 a 0.49964237,0.49964237 0 0 0 0.143,-0.989 z m 15.77,-0.021 -0.127,0.019 a 0.50004225,0.50004225 0 0 0 0.155,0.988 l 0.116,-0.018 a 0.5,0.5 0 0 0 0.423,-0.566 0.493,0.493 0 0 0 -0.567,-0.423 z m -17.341,-0.24 -0.106,-0.02 c -0.273,-0.047 -0.484,0.139 -0.534,0.411 -0.05,0.272 0.178,0.542 0.45,0.591 l 0.02,0.003 a 0.492,0.492 0 0 0 0.575,-0.398 0.508,0.508 0 0 0 -0.405,-0.587 z m 18.89,-0.023 -0.12,0.023 a 0.49952027,0.49952027 0 1 0 0.189,0.981 l 0.122,-0.023 A 0.5,0.5 0 1 0 59.506,81.673 Z M 39.105,81.366 38.983,81.335 c -0.266,-0.066 -0.494,0.105 -0.562,0.373 -0.067,0.267 0.138,0.55 0.404,0.619 l 0.031,0.008 a 0.50024044,0.50024044 0 0 0 0.249,-0.969 z m 21.929,-0.036 -0.118,0.03 a 0.49975619,0.49975619 0 1 0 0.249,0.968 l 0.121,-0.031 A 0.49964813,0.49964813 0 1 0 61.034,81.33 Z M 37.617,80.923 37.513,80.886 a 0.5,0.5 0 1 0 -0.352,0.936 l 0.126,0.046 a 0.502,0.502 0 0 0 0.637,-0.307 0.5,0.5 0 0 0 -0.307,-0.638 z m 24.951,0.965 c 0.055,0 0.11,-0.009 0.165,-0.028 l 0.125,-0.045 a 0.4999425,0.4999425 0 1 0 -0.349,-0.937 l -0.106,0.039 a 0.5,0.5 0 0 0 0.165,0.971 z M 50.073,80.693 H 49.95 c -0.276,0 -0.475,0.224 -0.475,0.5 0,0.276 0.248,0.5 0.524,0.5 h 0.074 a 0.5,0.5 0 0 0 0,-1 z m -1.584,-0.017 -0.123,-0.003 c -0.283,-0.021 -0.505,0.212 -0.512,0.488 a 0.501,0.501 0 0 0 0.488,0.512 l 0.123,0.003 h 0.012 a 0.500036,0.500036 0 0 0 0.012,-1 z m 3.168,-0.004 -0.123,0.003 a 0.501,0.501 0 0 0 0.012,1 h 0.013 l 0.122,-0.003 a 0.5,0.5 0 0 0 0.488,-0.512 c -0.007,-0.276 -0.242,-0.513 -0.512,-0.488 z m -4.751,-0.054 -0.123,-0.006 c -0.257,-0.003 -0.509,0.2 -0.523,0.476 a 0.5,0.5 0 0 0 0.476,0.523 l 0.123,0.006 h 0.024 a 0.5,0.5 0 0 0 0.023,-0.999 z m 6.334,-0.007 -0.129,0.007 a 0.5,0.5 0 0 0 0.03,0.999 l 0.031,-0.001 0.116,-0.006 A 0.50007624,0.50007624 0 1 0 53.24,80.611 Z M 45.325,80.519 45.203,80.51 c -0.271,-0.021 -0.485,0.189 -0.505,0.463 -0.021,0.275 0.214,0.517 0.489,0.538 l 0.067,0.005 0.036,10e-4 a 0.5,0.5 0 0 0 0.035,-0.998 z m 9.489,-0.01 -0.116,0.009 a 0.5,0.5 0 0 0 0.036,0.999 l 0.037,-10e-4 0.128,-0.01 A 0.5003084,0.5003084 0 1 0 54.814,80.509 Z M 43.752,80.375 43.63,80.362 a 0.5,0.5 0 1 0 -0.108,0.994 l 0.123,0.013 a 0.5,0.5 0 0 0 0.107,-0.994 z m 12.64,-0.017 -0.127,0.014 a 0.501,0.501 0 0 0 0.118,0.994 L 56.5,81.353 A 0.50042207,0.50042207 0 1 0 56.392,80.358 Z M 42.187,80.178 42.065,80.16 a 0.492,0.492 0 0 0 -0.566,0.423 0.5,0.5 0 0 0 0.423,0.566 l 0.122,0.018 a 0.49964237,0.49964237 0 0 0 0.143,-0.989 z m 15.77,-0.021 -0.127,0.019 a 0.50004225,0.50004225 0 0 0 0.155,0.988 l 0.116,-0.018 a 0.5,0.5 0 0 0 0.423,-0.566 0.491,0.491 0 0 0 -0.567,-0.423 z m -17.341,-0.24 -0.106,-0.02 c -0.273,-0.051 -0.484,0.139 -0.534,0.411 -0.05,0.272 0.178,0.542 0.45,0.591 l 0.02,0.003 a 0.492,0.492 0 0 0 0.575,-0.398 0.508,0.508 0 0 0 -0.405,-0.587 z m 18.89,-0.023 -0.12,0.023 a 0.49952027,0.49952027 0 1 0 0.189,0.981 l 0.122,-0.023 A 0.5,0.5 0 1 0 59.506,79.894 Z M 39.105,79.587 38.983,79.556 c -0.266,-0.068 -0.494,0.106 -0.562,0.373 -0.067,0.267 0.138,0.55 0.404,0.619 l 0.031,0.008 a 0.50024044,0.50024044 0 0 0 0.249,-0.969 z m 21.929,-0.036 -0.118,0.03 a 0.49975619,0.49975619 0 1 0 0.249,0.968 l 0.121,-0.031 A 0.49964813,0.49964813 0 1 0 61.034,79.551 Z M 37.617,79.144 37.513,79.107 a 0.5,0.5 0 1 0 -0.352,0.936 l 0.126,0.046 a 0.502,0.502 0 0 0 0.637,-0.307 0.5,0.5 0 0 0 -0.307,-0.638 z m 24.951,0.965 c 0.055,0 0.11,-0.009 0.165,-0.028 l 0.125,-0.045 a 0.4999425,0.4999425 0 1 0 -0.349,-0.937 l -0.106,0.039 a 0.5,0.5 0 0 0 0.165,0.971 z M 50,79.915 h 0.073 a 0.5,0.5 0 0 0 0,-1 H 49.95 c -0.276,0 -0.475,0.224 -0.475,0.5 0,0.276 0.248,0.5 0.525,0.5 z m -1.658,-0.021 0.123,0.003 h 0.012 a 0.500036,0.500036 0 0 0 0.012,-1 l -0.123,-0.003 a 0.504,0.504 0 0 0 -0.512,0.488 0.5,0.5 0 0 0 0.488,0.512 z m 3.204,0.002 h 0.012 l 0.122,-0.003 a 0.5,0.5 0 0 0 0.488,-0.512 0.51,0.51 0 0 0 -0.512,-0.488 l -0.123,0.003 a 0.501,0.501 0 0 0 0.013,1 z m -4.811,-0.063 0.123,0.006 h 0.024 a 0.5,0.5 0 0 0 0.023,-0.999 l -0.123,-0.006 a 0.515,0.515 0 0 0 -0.523,0.476 c -0.013,0.275 0.2,0.509 0.476,0.523 z m 6.405,0.005 0.031,-10e-4 0.116,-0.006 A 0.5000525,0.5000525 0 0 0 53.24,78.832 l -0.129,0.007 a 0.5,0.5 0 0 0 0.029,0.999 z m -7.954,-0.106 0.067,0.005 0.036,0.001 a 0.5,0.5 0 0 0 0.035,-0.998 l -0.122,-0.009 c -0.271,-0.022 -0.485,0.189 -0.505,0.463 -0.021,0.275 0.214,0.517 0.489,0.538 z m 9.628,-1.002 -0.116,0.009 a 0.5,0.5 0 0 0 0.036,0.999 l 0.037,-0.001 0.128,-0.01 A 0.5003084,0.5003084 0 1 0 54.814,78.73 Z m -11.291,0.846 0.123,0.013 a 0.5,0.5 0 0 0 0.107,-0.994 l -0.122,-0.013 a 0.498,0.498 0 0 0 -0.551,0.443 0.5,0.5 0 0 0 0.443,0.551 z m 12.799,0.014 0.06,-0.003 0.117,-0.013 A 0.5,0.5 0 1 0 56.391,78.58 l -0.127,0.014 a 0.5,0.5 0 1 0 0.058,0.996 z m -14.4,-0.219 0.122,0.018 A 0.49964237,0.49964237 0 0 0 42.187,78.4 l -0.122,-0.018 a 0.49,0.49 0 0 0 -0.566,0.423 0.5,0.5 0 0 0 0.423,0.566 z m 15.984,0.02 a 0.522,0.522 0 0 0 0.078,-0.006 L 58.1,79.367 a 0.5,0.5 0 0 0 0.423,-0.566 0.492,0.492 0 0 0 -0.566,-0.423 l -0.127,0.019 a 0.5,0.5 0 0 0 0.076,0.994 z m -17.48,-0.27 0.02,0.003 a 0.492,0.492 0 0 0 0.575,-0.398 0.508,0.508 0 0 0 -0.406,-0.587 l -0.106,-0.02 c -0.272,-0.049 -0.484,0.139 -0.534,0.411 -0.049,0.271 0.179,0.541 0.451,0.591 z m 19.08,-1.006 -0.12,0.023 a 0.49952027,0.49952027 0 1 0 0.189,0.981 l 0.122,-0.023 a 0.5,0.5 0 1 0 -0.191,-0.981 z m -20.681,0.654 0.031,0.008 a 0.5,0.5 0 0 0 0.249,-0.968 l -0.122,-0.031 c -0.265,-0.066 -0.494,0.105 -0.562,0.373 -0.067,0.266 0.138,0.549 0.404,0.618 z m 22.209,-0.997 -0.118,0.03 a 0.49975619,0.49975619 0 1 0 0.249,0.968 l 0.121,-0.031 a 0.49964813,0.49964813 0 1 0 -0.252,-0.967 z m -23.874,0.492 0.126,0.046 a 0.502,0.502 0 0 0 0.637,-0.307 0.5,0.5 0 0 0 -0.307,-0.637 l -0.104,-0.037 a 0.49953203,0.49953203 0 1 0 -0.352,0.935 z m 25.35,-0.945 -0.106,0.039 a 0.500009,0.500009 0 1 0 0.33,0.944 l 0.125,-0.045 A 0.50041108,0.50041108 0 1 0 62.51,77.319 Z M 50.073,77.136 H 49.95 c -0.276,0 -0.475,0.224 -0.475,0.5 0,0.276 0.248,0.5 0.524,0.5 h 0.074 a 0.5,0.5 0 0 0 0,-1 z m -1.584,-0.018 -0.123,-0.003 a 0.501,0.501 0 0 0 -0.024,1 l 0.123,0.003 h 0.012 a 0.500036,0.500036 0 0 0 0.012,-1 z m 3.168,-0.004 -0.123,0.003 a 0.501,0.501 0 0 0 0.012,1 h 0.013 l 0.122,-0.003 a 0.50014398,0.50014398 0 0 0 -0.024,-1 z m -4.751,-0.053 -0.123,-0.006 a 0.51,0.51 0 0 0 -0.523,0.476 0.5,0.5 0 0 0 0.476,0.523 l 0.123,0.006 h 0.024 a 0.5,0.5 0 0 0 0.023,-0.999 z m 6.334,-0.007 -0.129,0.007 a 0.5,0.5 0 0 0 0.03,0.999 l 0.031,-0.001 0.116,-0.006 A 0.5,0.5 0 0 0 53.764,77.53 C 53.751,77.255 53.511,77.026 53.24,77.054 Z m -7.915,-0.093 -0.122,-0.009 c -0.271,-0.022 -0.485,0.189 -0.505,0.463 -0.021,0.275 0.214,0.517 0.489,0.538 l 0.067,0.005 0.036,0.001 a 0.5,0.5 0 0 0 0.035,-0.998 z m 9.489,-0.01 -0.116,0.009 a 0.5,0.5 0 0 0 0.036,0.999 l 0.037,-0.001 0.128,-0.01 A 0.5003084,0.5003084 0 1 0 54.814,76.951 Z M 43.752,76.817 43.63,76.804 a 0.501,0.501 0 0 0 -0.108,0.994 l 0.123,0.013 a 0.5,0.5 0 0 0 0.107,-0.994 z m 12.64,-0.016 -0.127,0.014 a 0.501,0.501 0 0 0 0.118,0.994 L 56.5,77.796 a 0.50042207,0.50042207 0 0 0 -0.108,-0.995 z m -14.205,-0.18 -0.122,-0.018 a 0.489,0.489 0 0 0 -0.566,0.423 0.5,0.5 0 0 0 0.423,0.566 l 0.122,0.018 a 0.49964237,0.49964237 0 0 0 0.143,-0.989 z M 57.957,76.6 57.83,76.619 a 0.50004225,0.50004225 0 0 0 0.155,0.988 l 0.116,-0.018 A 0.5,0.5 0 0 0 58.524,77.023 0.491,0.491 0 0 0 57.957,76.6 Z M 40.616,76.36 40.51,76.34 c -0.273,-0.048 -0.484,0.14 -0.534,0.411 -0.05,0.272 0.178,0.542 0.45,0.591 l 0.02,0.003 a 0.492,0.492 0 0 0 0.575,-0.398 0.507,0.507 0 0 0 -0.405,-0.587 z m 18.89,-0.024 -0.12,0.023 a 0.49952027,0.49952027 0 1 0 0.189,0.981 l 0.122,-0.023 A 0.5,0.5 0 1 0 59.506,76.336 Z M 39.105,76.03 38.983,75.999 c -0.266,-0.068 -0.494,0.106 -0.562,0.373 -0.067,0.267 0.138,0.55 0.404,0.619 l 0.031,0.008 a 0.50024044,0.50024044 0 0 0 0.249,-0.969 z m 21.929,-0.036 -0.118,0.03 a 0.49975619,0.49975619 0 1 0 0.249,0.968 l 0.121,-0.031 A 0.49964813,0.49964813 0 1 0 61.034,75.994 Z M 37.617,75.586 37.513,75.549 a 0.5,0.5 0 1 0 -0.352,0.936 l 0.126,0.046 a 0.502,0.502 0 0 0 0.637,-0.307 0.501,0.501 0 0 0 -0.307,-0.638 z m 24.951,0.965 c 0.055,0 0.11,-0.009 0.165,-0.028 l 0.125,-0.045 a 0.4999425,0.4999425 0 1 0 -0.349,-0.937 l -0.106,0.039 a 0.5,0.5 0 0 0 0.165,0.971 z M 50.073,75.356 H 49.95 c -0.276,0 -0.475,0.224 -0.475,0.5 0,0.276 0.248,0.5 0.524,0.5 h 0.074 a 0.5,0.5 0 0 0 0,-1 z m -1.584,-0.017 -0.123,-0.003 a 0.501,0.501 0 0 0 -0.024,1 l 0.123,0.003 h 0.012 a 0.500036,0.500036 0 0 0 0.012,-1 z m 3.168,-0.004 -0.123,0.003 a 0.501,0.501 0 0 0 0.012,1 h 0.013 l 0.122,-0.003 a 0.50014398,0.50014398 0 0 0 -0.024,-1 z m -4.751,-0.054 -0.123,-0.006 a 0.518,0.518 0 0 0 -0.523,0.476 0.5,0.5 0 0 0 0.476,0.523 l 0.123,0.006 h 0.024 a 0.5,0.5 0 0 0 0.023,-0.999 z m 6.334,-0.007 -0.129,0.007 a 0.5,0.5 0 0 0 0.03,0.999 l 0.031,-0.001 0.116,-0.006 A 0.50007624,0.50007624 0 1 0 53.24,75.274 Z m -7.915,-0.092 -0.122,-0.009 c -0.271,-0.022 -0.485,0.189 -0.505,0.463 -0.021,0.275 0.214,0.517 0.489,0.538 l 0.067,0.005 0.036,0.001 a 0.5,0.5 0 0 0 0.035,-0.998 z m 9.489,-0.01 -0.116,0.009 a 0.5,0.5 0 0 0 0.036,0.999 l 0.037,-0.001 0.128,-0.01 A 0.5003084,0.5003084 0 1 0 54.814,75.172 Z M 43.752,75.038 43.63,75.025 a 0.5,0.5 0 0 0 -0.108,0.994 l 0.123,0.013 a 0.5,0.5 0 0 0 0.107,-0.994 z m 12.64,-0.017 -0.127,0.014 a 0.501,0.501 0 0 0 0.118,0.994 L 56.5,76.016 a 0.50042207,0.50042207 0 0 0 -0.108,-0.995 z m -14.205,-0.18 -0.122,-0.018 a 0.491,0.491 0 0 0 -0.566,0.423 0.5,0.5 0 0 0 0.423,0.566 l 0.122,0.018 a 0.49964237,0.49964237 0 0 0 0.143,-0.989 z m 15.77,-0.021 -0.127,0.019 a 0.50004225,0.50004225 0 0 0 0.155,0.988 l 0.116,-0.018 A 0.5,0.5 0 1 0 57.957,74.82 Z M 40.616,74.581 40.51,74.561 c -0.273,-0.051 -0.484,0.139 -0.534,0.411 -0.05,0.272 0.178,0.542 0.45,0.591 l 0.02,0.003 a 0.492,0.492 0 0 0 0.575,-0.398 0.507,0.507 0 0 0 -0.405,-0.587 z m 18.89,-0.024 -0.12,0.023 a 0.49952027,0.49952027 0 1 0 0.189,0.981 l 0.122,-0.023 A 0.5,0.5 0 1 0 59.506,74.557 Z M 39.105,74.25 38.983,74.219 c -0.266,-0.066 -0.494,0.105 -0.562,0.373 -0.067,0.267 0.138,0.55 0.404,0.619 l 0.031,0.008 a 0.50024044,0.50024044 0 0 0 0.249,-0.969 z m 21.929,-0.036 -0.118,0.03 a 0.49975619,0.49975619 0 1 0 0.249,0.968 l 0.121,-0.031 A 0.49964813,0.49964813 0 1 0 61.034,74.214 Z M 37.617,73.807 37.513,73.77 a 0.5,0.5 0 1 0 -0.352,0.936 l 0.126,0.046 a 0.502,0.502 0 0 0 0.637,-0.307 0.5,0.5 0 0 0 -0.307,-0.638 z m 24.951,0.965 c 0.055,0 0.11,-0.009 0.165,-0.028 l 0.125,-0.045 A 0.4999425,0.4999425 0 1 0 62.509,73.762 L 62.403,73.8 a 0.5,0.5 0 0 0 0.165,0.972 z M 50.073,86.03 H 49.95 c -0.276,0 -0.475,0.224 -0.475,0.5 0,0.276 0.248,0.5 0.524,0.5 h 0.074 a 0.5,0.5 0 0 0 0,-1 z m -1.584,-0.018 -0.123,-0.003 a 0.502,0.502 0 0 0 -0.512,0.488 0.501,0.501 0 0 0 0.488,0.512 l 0.123,0.003 h 0.012 a 0.500036,0.500036 0 0 0 0.012,-1 z m 3.168,-0.004 -0.123,0.003 a 0.501,0.501 0 0 0 0.012,1 h 0.012 l 0.122,-0.003 a 0.5,0.5 0 0 0 0.488,-0.512 0.508,0.508 0 0 0 -0.511,-0.488 z m -4.751,-0.053 -0.123,-0.006 a 0.51,0.51 0 0 0 -0.523,0.476 0.5,0.5 0 0 0 0.476,0.523 l 0.123,0.006 h 0.024 a 0.5,0.5 0 0 0 0.023,-0.999 z m 6.334,-0.007 -0.129,0.007 a 0.5,0.5 0 0 0 0.03,0.999 l 0.031,-10e-4 0.116,-0.006 a 0.5,0.5 0 0 0 0.476,-0.523 C 53.751,86.149 53.511,85.921 53.24,85.948 Z m -7.915,-0.093 -0.122,-0.009 c -0.271,-0.021 -0.485,0.189 -0.505,0.463 -0.021,0.275 0.214,0.517 0.489,0.538 l 0.067,0.005 0.036,10e-4 a 0.5,0.5 0 0 0 0.035,-0.998 z m 9.489,-0.01 -0.116,0.009 a 0.5,0.5 0 0 0 0.036,0.999 l 0.037,-10e-4 0.128,-0.01 A 0.5003084,0.5003084 0 1 0 54.814,85.845 Z M 43.752,85.711 43.63,85.698 a 0.5,0.5 0 1 0 -0.108,0.994 l 0.123,0.013 a 0.5,0.5 0 0 0 0.107,-0.994 z m 12.64,-0.016 -0.127,0.014 a 0.501,0.501 0 0 0 0.118,0.994 L 56.5,86.69 a 0.50042207,0.50042207 0 1 0 -0.108,-0.995 z m -14.205,-0.18 -0.122,-0.018 a 0.49,0.49 0 0 0 -0.566,0.423 0.5,0.5 0 0 0 0.423,0.566 l 0.122,0.018 a 0.49964237,0.49964237 0 0 0 0.143,-0.989 z m 15.77,-0.021 -0.127,0.019 a 0.50004225,0.50004225 0 0 0 0.155,0.988 l 0.116,-0.018 a 0.5,0.5 0 0 0 0.423,-0.566 0.493,0.493 0 0 0 -0.567,-0.423 z m -17.341,-0.24 -0.106,-0.02 c -0.273,-0.05 -0.484,0.139 -0.534,0.411 -0.05,0.272 0.178,0.542 0.45,0.591 l 0.02,0.003 a 0.492,0.492 0 0 0 0.575,-0.398 0.507,0.507 0 0 0 -0.405,-0.587 z m 18.89,-0.024 -0.12,0.023 a 0.49952027,0.49952027 0 1 0 0.189,0.981 l 0.122,-0.023 A 0.5,0.5 0 1 0 59.506,85.23 Z M 39.105,84.924 38.983,84.893 c -0.266,-0.066 -0.494,0.105 -0.562,0.373 -0.067,0.267 0.138,0.55 0.404,0.619 l 0.031,0.008 a 0.50024044,0.50024044 0 0 0 0.249,-0.969 z m 21.929,-0.036 -0.118,0.03 a 0.49975619,0.49975619 0 1 0 0.249,0.968 l 0.121,-0.031 A 0.49964813,0.49964813 0 1 0 61.034,84.888 Z M 37.617,84.48 37.513,84.443 a 0.5,0.5 0 1 0 -0.352,0.936 l 0.126,0.046 a 0.502,0.502 0 0 0 0.637,-0.307 0.501,0.501 0 0 0 -0.307,-0.638 z m 24.893,-0.045 -0.106,0.039 a 0.500009,0.500009 0 1 0 0.33,0.944 l 0.125,-0.045 A 0.501,0.501 0 0 0 62.51,84.435 Z" />
      <ellipse
         id="ellipse5651"
         cx="41.998001"
         cy="8.8520002"
         rx="2.2980001"
         ry="0.53500003" />
      <ellipse
         id="ellipse5653"
         cx="58.273998"
         cy="8.8520002"
         rx="2.2980001"
         ry="0.53500003" />
    </g>
    <text
       id="text5659"
       word-spacing="0"
       letter-spacing="0"
       font-size="8.819"
       font-weight="400"
       y="79.873474"
       x="-0.86455655"
       style="font-weight:400;font-size:8.81370926px;line-height:100%;font-family:sans-serif;-inkscape-font-specification:'sans-serif, Normal';font-variant-ligatures:normal;font-variant-caps:normal;font-variant-numeric:normal;font-feature-settings:normal;text-align:start;letter-spacing:0;word-spacing:0;stroke-width:0.26484099">
      <tspan
         style="stroke-width:0.26484099"
         id="tspan5657"
         y="79.873474"
         x="-0.86455655">Echo</tspan>
    </text>
    <text
       id="text5667"
       word-spacing="0"
       letter-spacing="0"
       font-size="7.056"
       font-weight="400"
       y="60.832489"
       x="84.084442"
       style="font-weight:400;font-size:7.0517664px;line-height:100%;font-family:sans-serif;-inkscape-font-specification:'sans-serif, Normal';font-variant-ligatures:normal;font-variant-caps:normal;font-variant-numeric:normal;font-feature-settings:normal;text-align:center;letter-spacing:0;word-spacing:0;text-anchor:middle;stroke-width:0.26484099">
      <tspan
         id="tspan5661"
         style="line-height:9.25486088px;-inkscape-font-specification:'sans-serif, Normal';font-variant-ligatures:normal;font-variant-caps:normal;font-variant-numeric:normal;font-feature-settings:normal;text-align:center;stroke-width:0.26484099"
         y="60.832489"
         x="84.084442">Alexa</tspan>
      <tspan
         id="tspan5663"
         style="line-height:9.25486088px;-inkscape-font-specification:'sans-serif, Normal';font-variant-ligatures:normal;font-variant-caps:normal;font-variant-numeric:normal;font-feature-settings:normal;text-align:center;stroke-width:0.26484099"
         y="70.086937"
         x="84.084442">Voice</tspan>
      <tspan
         id="tspan5665"
         style="line-height:9.25486088px;-inkscape-font-specification:'sans-serif, Normal';font-variant-ligatures:normal;font-variant-caps:normal;font-variant-numeric:normal;font-feature-settings:normal;text-align:center;stroke-width:0.26484099"
         y="79.342384"
         x="84.084442">Service</tspan>
    </text>
    <path
       style="fill:#f37b21"
       inkscape:connector-curvature="0"
       id="path5669"
       d="m 163.19,41.312002 -3.37,-8.537 -4.938,7.78 h -3.096 l 6.897,-11.137 -0.774,-2.2 h -2.686 v -2.625 h 4.597 l 5.28,13.428 2.322,-0.757 0.774,2.601 z" />
    <path
       style="fill:none;stroke:#f37b21;stroke-width:2.96600008"
       inkscape:connector-curvature="0"
       id="path5671"
       d="m 173.114,33.413002 c 0,7.467 -6.051,13.518 -13.517,13.518 -7.466,0 -13.518,-6.051 -13.518,-13.518 0,-7.466 6.052,-13.517 13.518,-13.517 7.466,0 13.517,6.051 13.517,13.517 z" />
    <text
       id="text5677"
       word-spacing="0"
       letter-spacing="0"
       font-size="5.292"
       font-weight="400"
       y="61.66481"
       x="159.57231"
       style="font-weight:400;font-size:5.28882456px;line-height:100%;font-family:sans-serif;-inkscape-font-specification:'sans-serif, Normal';font-variant-ligatures:normal;font-variant-caps:normal;font-variant-numeric:normal;font-feature-settings:normal;text-align:start;letter-spacing:0;word-spacing:0;stroke-width:0.26484099">
      <tspan
         id="tspan5673"
         font-size="7.056"
         style="font-size:7.0517664px;line-height:9.25486088px;-inkscape-font-specification:'sans-serif, Normal';font-variant-ligatures:normal;font-variant-caps:normal;font-variant-numeric:normal;font-feature-settings:normal;text-align:center;text-anchor:middle;stroke-width:0.26484099"
         y="61.66481"
         x="159.57231">AWS</tspan>
      <tspan
         id="tspan5675"
         font-size="7.056"
         style="font-size:7.0517664px;line-height:9.25486088px;-inkscape-font-specification:'sans-serif, Normal';font-variant-ligatures:normal;font-variant-caps:normal;font-variant-numeric:normal;font-feature-settings:normal;text-align:center;text-anchor:middle;stroke-width:0.26484099"
         y="70.91925"
         x="159.57231">Lambda</tspan>
    </text>
    <g
       transform="translate(0,18.115002)"
       style="fill:none;fill-rule:evenodd;stroke:#000000"
       id="g5683">
      <path
         style="marker-end:url(#a)"
         inkscape:connector-curvature="0"
         id="path5679"
         transform="matrix(0.9994,0,0,0.9994,-8.454,-23.017)"
         d="m 112.352,47.795 h 30.836" />
      <path
         style="marker-end:url(#b)"
         inkscape:connector-curvature="0"
         id="path5681"
         transform="matrix(0.9994,0,0,0.9994,-8.454,-23.017)"
         d="M 144.7,56.203 H 113.863" />
    </g>
    <g
       transform="translate(0,18.115002)"
       style="fill:none;fill-rule:evenodd;stroke:#000000"
       id="g5689">
      <path
         style="marker-end:url(#c)"
         inkscape:connector-curvature="0"
         id="path5685"
         transform="matrix(0.9994,0,0,0.9994,-8.454,-23.017)"
         d="M 36.047,47.795 H 66.883" />
      <path
         style="marker-end:url(#d)"
         inkscape:connector-curvature="0"
         id="path5687"
         transform="matrix(0.9994,0,0,0.9994,-8.454,-23.017)"
         d="M 68.395,56.203 H 37.56" />
    </g>
    <g
       transform="translate(0,18.115002)"
       style="fill:none;fill-rule:evenodd;stroke:#000000"
       id="g5695">
      <path
         style="marker-end:url(#e)"
         inkscape:connector-curvature="0"
         id="path5691"
         transform="matrix(0.9994,0,0,0.9994,70.048,-23.017)"
         d="m 112.352,47.795 h 30.836" />
      <path
         style="marker-end:url(#f)"
         inkscape:connector-curvature="0"
         id="path5693"
         transform="matrix(0.9994,0,0,0.9994,70.048,-23.017)"
         d="M 144.7,56.203 H 113.863" />
    </g>
    <g
       id="g5699"
       transform="matrix(0.08377,0,0,-0.08377,62.685,54.560002)"
       clip-path="url(#g)">
      <path
         style="fill:#00caff"
         inkscape:connector-curvature="0"
         id="path5697"
         d="m 227.918,79.187 v 35.501 c 0,12.621 -7.731,23.871 -19.451,28.847 -43.869,18.622 -74.575,62.183 -74.575,112.465 0,67.021 54.55,122.107 122.107,122.107 67.559,0 122.107,-55.086 122.107,-122.107 0,-79.078 -61.171,-153.852 -150.188,-176.813 m 28.081,355.879 C 156.927,435.066 76.933,354.285 76.933,256 c 0,-98.285 79.994,-179.067 179.066,-179.067 99.073,0 179.068,80.782 179.068,179.067 0,98.285 -79.995,179.066 -179.068,179.066" />
    </g>
    <path
       style="fill:#231f20"
       inkscape:connector-curvature="0"
       id="path5701"
       d="m 243.193,54.990002 h -2.635 l 0.098,-31.008 a 1.725,1.725 0 0 0 -1.72,-1.73 l -13.793,-0.042 a 1.723,1.723 0 0 0 -1.73,1.718 l -0.097,31.033 0.002,0.029 h -2.539 a 0.861,0.861 0 0 0 -0.862,0.86 v 1.725 a 0.861,0.861 0 0 0 0.862,0.863 h 22.414 a 0.862,0.862 0 0 0 0.862,-0.863 v -1.724 a 0.862,0.862 0 0 0 -0.862,-0.861" />
    <g
       id="g5705"
       transform="matrix(0.35278,0,0,-0.35278,212.937,76.675002)"
       clip-path="url(#h)">
      <path
         style="stroke:#231f20;stroke-miterlimit:10"
         inkscape:connector-curvature="0"
         id="path5703"
         stroke-miterlimit="10"
         d="m 25.07,23.21 h 5.971 v 1.804 l -1.575,0.272 1.417,3.837 H 39.23 L 40.605,25.286 39.03,25.014 V 23.21 h 5.985 v 1.804 l -1.532,0.215 -7.159,18.828 h -2.42 L 26.616,25.229 25.07,25.014 Z m 9.979,17.225 h 0.086 l 3.236,-8.95 H 31.757 Z M 49.11,44.058 H 46.776 V 42.24 L 49.11,41.839 V 25.416 l -2.334,-0.401 v -1.804 h 10.023 c 2.119,0 3.799,0.503 5.04,1.511 1.24,1.007 1.861,2.465 1.861,4.374 0,1.279 -0.363,2.4 -1.089,3.364 -0.725,0.965 -1.712,1.58 -2.963,1.848 0.963,0.353 1.74,0.895 2.327,1.625 0.587,0.73 0.88,1.558 0.88,2.484 0,1.88 -0.614,3.29 -1.84,4.231 -1.227,0.94 -2.928,1.41 -5.104,1.41 z m 8.118,-11.067 c 1.231,0 2.145,-0.349 2.742,-1.045 0.597,-0.698 0.895,-1.657 0.895,-2.878 0,-1.165 -0.356,-2.065 -1.067,-2.699 -0.711,-0.635 -1.711,-0.953 -2.999,-0.953 H 51.93 v 7.575 z m -5.298,8.848 h 3.981 c 1.336,0 2.358,-0.279 3.064,-0.838 0.706,-0.558 1.059,-1.4 1.059,-2.527 0,-1.012 -0.312,-1.804 -0.937,-2.377 -0.625,-0.572 -1.445,-0.873 -2.456,-0.901 H 51.93 Z M 82.2,23.21 v 4.997 h -2.405 l -0.23,-2.792 h -8.376 v 7.46 h 7.976 v 2.219 h -7.976 v 6.744 h 8.204 l 0.23,-2.792 h 2.42 v 5.011 H 66.035 v -1.819 l 2.334,-0.4 V 25.415 L 66.035,25.014 V 23.21 Z" />
    </g>
  </g>
</svg>
